<?xml version="1.0" encoding="UTF-8"?>
<!DOCTYPE svg PUBLIC "-//W3C//DTD SVG 1.1//EN" "http://www.w3.org/Graphics/SVG/1.1/DTD/svg11.dtd">
<!-- Creator: CorelDRAW X7 -->
<svg xmlns="http://www.w3.org/2000/svg" xml:space="preserve" width="1.00921in" height="0.173138in" version="1.1" style="shape-rendering:geometricPrecision; text-rendering:geometricPrecision; image-rendering:optimizeQuality; fill-rule:evenodd; clip-rule:evenodd"
viewBox="0 0 1009 173"
 xmlns:xlink="http://www.w3.org/1999/xlink">
 <defs>
  <style type="text/css">
   <![CDATA[
    .fil1 {fill:black}
    .fil2 {fill:black}
    .fil0 {fill:#CBAE3B}
    .fil3 {fill:black;fill-rule:nonzero}
   ]]>
  </style>
 </defs>
 <g id="Layer_x0020_1">
  <metadata id="CorelCorpID_0Corel-Layer"/>
  <g id="_1392612927024">
   <rect class="fil0" width="1009" height="173" rx="87" ry="87"/>
   <g>
    <g>
     <g>
      <path class="fil1" d="M292 106c-17,0 -16,-39 0,-39 17,0 16,39 0,39zm-1 -42l4 0c5,1 10,3 13,7 3,4 5,8 5,15 0,25 -25,28 -36,17 -5,-6 -5,-11 -5,-19 0,-12 9,-19 19,-20z"/>
      <path class="fil1" d="M163 67c4,0 8,3 9,6 5,7 6,33 -10,33 -9,0 -12,-13 -12,-20 0,-8 3,-19 13,-19zm-21 20c0,5 2,11 5,15 11,13 37,8 37,-16 0,-11 -8,-22 -19,-22 -11,0 -18,4 -22,14 0,1 -1,7 -1,9z"/>
      <path class="fil1" d="M317 67c3,0 5,0 5,3l0 33c0,3 -2,3 -5,3l0 2 13 0 0 -2 -4 -1c-1,-12 -1,-21 -1,-34l7 9c2,4 4,7 7,10 2,3 4,6 7,10 4,6 5,9 9,9l0 -37c0,-4 2,-5 5,-5l0 -2 -13 0 0 2 5 1c1,7 0,19 0,28 0,-1 0,-1 0,-1 0,0 0,0 0,0l-21 -29c-1,-1 0,-1 -2,-1l-12 0 0 2z"/>
      <path class="fil1" d="M100 84l0 5c0,10 8,20 18,20 6,0 9,0 14,-4 2,-1 7,-10 3,-9 -2,0 0,2 -4,6 -5,5 -15,5 -19,-2 -6,-8 -6,-33 9,-33 8,0 13,6 13,14l2 0 0 -15c-2,0 -2,0 -2,3 -2,-1 -3,-2 -5,-3 -2,-1 -4,-2 -6,-2l-5 0c-9,1 -18,9 -18,20z"/>
      <path class="fil1" d="M229 77l2 0c2,-10 3,-10 14,-10l0 34c0,2 -1,2 -1,4l-5 1 0 2 19 0 0 -2c-2,0 -5,0 -5,-3l0 -36c8,0 12,0 13,10l2 0c1,-3 -1,-8 -1,-12l-35 0c-3,0 -2,2 -2,5 0,2 -1,3 -1,7z"/>
      <path class="fil1" d="M187 77c5,-1 -1,-10 10,-10l5 0 0 34c0,2 0,2 0,4l-5 1 0 2 19 0 0 -2c-2,0 -6,0 -6,-3l0 -36c10,0 11,0 13,7 1,2 0,2 2,3 1,-2 0,-8 0,-12l-37 0c-1,3 -1,8 -1,12z"/>
     </g>
     <g>
      <path class="fil1" d="M430 68c2,0 2,0 4,1 0,3 1,2 1,5l0 27c0,4 -1,5 -5,5l0 3 17 0 0 -3c-7,0 -5,-7 -5,-19l18 0c0,17 2,19 -4,19l0 3 17 0 0 -3c-2,0 -2,0 -4,0 0,-3 -1,-3 -1,-6l0 -27c0,-2 1,-2 1,-4 2,-1 2,-1 4,-1l0 -3c-11,1 -6,1 -17,0l0 3c6,0 4,1 4,16l-18 0 0 -8c0,-4 1,-4 1,-7 1,-1 2,-1 4,-1l0 -3c-11,1 -6,1 -17,0l0 3z"/>
      <path class="fil1" d="M534 106l-5 0 0 -38c12,0 20,1 20,19 0,12 -4,19 -15,19zm-18 -38c2,0 5,0 5,3l0 33c0,2 -2,2 -5,2l0 3 21 0c24,0 27,-33 9,-41 -8,-4 -16,-2 -26,-2 -3,0 -4,-3 -4,2z"/>
      <path class="fil1" d="M389 68c2,0 2,0 4,1 0,2 1,2 1,4l0 28c0,3 -1,3 -1,5 -2,0 -2,0 -4,0l0 3 17 0c0,-4 0,-1 -5,-4l0 -15c3,-1 1,-1 3,-1 1,3 10,12 11,17 -2,1 -1,0 -3,0l0 3 17 0 0 -3c-4,0 -5,-1 -7,-4l-13 -19c3,-2 8,-10 11,-13 3,-4 2,-1 6,-3 -1,-3 0,-1 -11,-1 -3,0 0,-2 -3,0 0,2 0,2 3,2 0,4 -3,8 -5,10 -3,3 -5,7 -9,9 0,-4 0,-9 0,-13 0,-9 3,-4 5,-7 -1,-4 -1,-1 -5,-1l-12 -1 0 3z"/>
      <path class="fil1" d="M492 76l0 0c0,0 1,1 1,1l4 14 -10 0c0,-4 4,-11 5,-15zm-17 30l0 3 11 0 0 -3c-2,0 -2,0 -3,0 0,-6 2,-8 3,-13l12 0c1,2 2,5 3,8 1,4 1,5 -4,5l0 3 17 0 0 -3c-3,0 -3,0 -4,-3 -1,-1 -1,-3 -2,-5l-11 -32c-1,-1 0,-2 -3,-2 -2,0 -3,6 -5,10 -1,4 -2,8 -4,12l-6 17c-1,3 -1,3 -4,3z"/>
      <path class="fil1" d="M562 68c2,0 5,0 5,3 0,7 1,29 -1,35 -1,0 -1,0 -4,0l0 3 18 0 0 -3c-3,0 -3,0 -4,0 -2,-6 -1,-27 -1,-34 0,-5 2,-4 5,-4l0 -3c-11,1 -7,1 -18,0l0 3z"/>
     </g>
    </g>
    <g>
     <path class="fil2" d="M761 101l0 -1c1,-1 1,-1 1,-2 1,-1 0,0 1,-1 0,0 2,-2 2,-2 0,0 0,0 0,0 1,0 2,1 3,2 0,0 1,1 1,1 0,0 0,0 0,0 0,0 0,1 0,1 -1,0 -1,0 -1,0 0,0 0,0 0,0 -1,1 -1,1 -2,1 -2,0 -4,1 -5,1zm77 -15c0,5 1,8 2,12 1,1 1,2 2,4 1,1 2,4 3,6 1,0 1,1 2,2 0,1 1,2 2,2l0 1c1,0 2,1 2,2 0,0 0,0 1,0 0,0 -1,0 -1,-1l-1 -3c-1,-1 -2,-3 -2,-4 0,0 0,-1 0,-1 -1,0 -1,0 -1,0 0,-1 0,-1 0,-2 -1,-5 -1,-8 -1,-13 0,-4 0,-9 1,-13 2,-3 3,-6 5,-9 1,0 1,0 1,0l1 -1c0,-1 1,-2 0,-3 -1,-2 -3,-2 -5,-1 -1,0 -2,1 -3,2 0,1 -1,1 -1,2 0,0 -1,0 -1,1 0,0 0,0 0,0 -1,1 -2,3 -3,4 -2,4 -3,9 -3,13zm-135 22c0,0 0,-1 0,-2 0,-1 0,-1 1,-2 1,-1 2,-2 3,-4 0,0 1,0 1,0 0,0 0,-1 0,-1l2 -1c2,-1 2,-1 4,-2l1 -1c2,0 1,0 1,-1 1,0 1,0 2,0 0,0 1,-1 1,-1 1,0 1,-1 3,-1l2 -1c1,0 1,0 2,0 0,0 1,0 1,0 0,0 0,1 0,2 0,0 0,0 -1,0 -1,2 -3,3 -5,5 0,0 0,0 0,0l-3 2c0,0 -1,1 -1,1 -1,0 -1,1 -2,1l-1 1c-1,0 -2,1 -2,1 -2,1 -4,2 -5,3 -1,0 -3,1 -4,1zm27 -22c0,0 0,0 -1,-1 0,0 -2,0 -2,0 -3,0 -4,1 -6,1 -1,0 -2,1 -2,1 -1,0 -1,1 -1,1 -1,0 -1,0 -1,1 -2,0 -4,1 -6,2 -1,2 -4,3 -5,5l-2 0c0,1 0,1 0,1 0,0 -1,1 -1,1l-1 1c-1,0 -1,0 -1,0 0,1 -1,1 -1,2 -1,0 -1,0 -1,0 -1,1 -2,3 -2,4 -1,1 -1,2 -1,3 0,1 1,2 1,2 1,2 6,3 8,3 0,0 1,0 2,0 2,-1 4,-2 6,-3 1,0 3,-2 4,-2 1,-1 1,0 2,-1 0,-1 0,-1 1,-1 1,-1 1,-1 2,-2 0,0 0,0 0,0 1,-1 2,-2 4,-3 0,1 1,4 2,5 0,0 1,0 3,1 0,0 0,0 1,0 0,1 1,1 2,1 0,0 0,0 1,0 0,-1 0,-1 0,-1 0,0 0,0 1,0 0,-1 0,-1 0,-1 0,0 1,-1 1,-1 0,-1 1,-2 1,-2 1,-2 1,-3 3,-4 0,0 1,-1 1,0 0,0 0,0 0,1 0,0 0,0 0,1 0,0 0,1 0,1 1,0 1,1 1,1 0,1 0,1 0,1 0,0 1,0 1,0 0,0 1,1 1,1 1,0 1,0 2,0 -1,-1 -1,-2 -1,-3 0,0 0,0 0,0 0,-1 0,-1 0,-1 0,-1 0,-3 1,-4 0,-1 0,-1 0,-2 0,-1 0,-1 0,-1l1 0c0,0 0,-1 0,-1 1,0 1,-1 1,-1 0,0 0,-1 1,-1l0 0c0,-1 0,-1 1,-1 0,0 0,0 0,0 0,0 0,0 0,0 0,-2 -1,-2 -3,-2 0,-1 0,-2 0,-3l0 0c0,0 -1,0 -1,0 -2,0 -4,2 -6,3 -1,0 -1,1 -2,1 -1,1 -2,3 -3,2 0,0 0,0 0,-1 0,0 0,0 0,0l2 -3c0,0 0,0 0,-1 1,0 1,-1 1,-2 1,0 1,-2 2,-2 0,-1 0,-1 0,-2 0,0 0,0 -1,-1l-1 -1c-1,0 -1,0 -1,0 0,-1 0,-1 -1,-2 -1,-1 -2,1 -3,2 0,0 -1,3 -2,3 0,0 0,0 0,0 0,1 0,1 0,2 -1,0 -2,2 -2,3zm98 -66l0 0c1,0 2,0 3,0 1,0 2,1 3,1l2 0c0,0 0,0 0,0 1,0 2,0 3,0 1,0 2,0 3,1 1,0 2,1 3,1 1,0 3,1 4,2 1,0 2,1 2,1 1,1 1,1 1,1 1,1 2,2 3,3 1,1 2,5 2,8 0,0 -2,4 -2,4 0,0 0,0 -1,1 0,0 0,0 0,0 0,1 -1,2 -1,2 -1,0 -1,1 -1,1 0,0 0,0 -1,1 0,0 -1,0 -1,1 0,0 -1,0 -1,1l-1 1c-1,1 -1,1 -1,1 0,0 -7,5 -7,6 -1,0 -1,0 -2,1 0,0 0,0 0,0 -2,2 -4,3 -5,4 -1,0 -1,0 -1,0l-4 3c-1,0 -2,1 -3,2 0,0 -1,0 -2,1 0,0 0,0 -1,0 0,0 0,0 0,0 -1,1 -1,1 -2,1 0,0 0,0 0,1 0,0 0,0 0,0 0,0 0,0 0,0 1,0 1,0 1,0 2,-1 3,-1 4,-1 1,0 4,-1 5,-1 0,0 1,0 1,0 1,0 1,0 1,0 0,0 1,0 1,0 1,1 2,1 4,1 0,1 1,1 2,2 0,0 0,1 0,1 0,0 0,1 0,1 0,1 -1,2 -1,2l-1 1c0,0 0,0 0,0l-1 1c0,0 0,0 0,0l-2 2c-1,0 -1,1 -1,1l-2 2c-1,0 -1,0 -1,0l-1 1c0,0 0,0 0,0l-1 0c-1,1 -2,2 -3,3 -1,0 -2,1 -3,1l-7 4c-2,1 -4,2 -3,4 0,0 1,1 1,2 1,0 1,1 1,2 1,2 2,3 3,4l4 4c0,0 0,0 1,1l3 2c0,1 0,1 0,1 1,1 2,1 3,2 1,0 1,0 1,0 1,1 3,1 4,2 1,0 2,1 3,1 1,0 2,0 3,0 1,1 2,1 3,1 0,0 2,0 3,0 1,1 1,1 2,1 0,0 0,0 0,0 1,0 2,0 2,0l8 0c1,0 2,0 3,0 0,0 1,0 1,0 0,0 0,0 1,0 1,0 5,-1 7,-1 2,0 4,-1 5,-1 1,0 2,0 3,-1 1,0 1,0 2,0 0,0 0,0 1,0 1,-1 2,-1 2,-1l5 -1c1,-1 2,-1 3,-1l4 -1c1,-1 2,-1 4,-1 0,-1 0,-1 1,-1 0,0 1,0 2,0 0,0 0,0 0,0 1,-1 1,-1 1,-1 1,0 2,-1 3,-1l2 -1c0,0 3,-2 2,-1 0,1 0,1 0,1 -1,0 -2,1 -2,2 -1,0 -2,0 -3,1 -1,0 -1,0 -3,1 0,0 -1,0 -1,1l-3 0c0,1 0,1 0,1 -1,0 -1,0 -1,0 -1,1 -3,1 -4,1 -1,0 -2,1 -2,1 -1,0 -2,1 -3,1 -4,1 -7,2 -11,2 0,1 -1,1 -2,1 -1,0 -2,0 -3,1 -2,0 -3,0 -4,0 -1,0 -1,0 -1,0 -1,0 -2,0 -4,0 0,0 -1,0 -2,0 0,0 -1,0 -2,0 -1,0 -3,0 -5,0l-2 0c-1,0 -2,0 -2,0 -1,0 -1,0 -2,0l-6 -1c-1,0 -1,1 -1,1 0,0 -1,0 -1,0 0,-1 -1,-1 -1,-1 -1,0 -2,0 -3,0 -1,0 -4,-2 -5,-2 -1,0 -1,0 -1,0 -1,-1 -5,-3 -6,-4l-1 0c-1,-1 -1,-1 -2,-1 -1,-1 -2,-2 -3,-3l-2 -1c0,0 -1,-1 -1,-2 -1,0 -2,-1 -2,-2 -1,0 -1,-1 -2,-2 0,0 0,0 0,0 -1,0 -1,0 -1,0 0,-1 -1,-1 -1,-2 0,0 -1,-1 -2,-1 0,-1 0,-1 0,-2 -1,0 -1,0 -2,1 0,0 -1,0 -2,1 -1,0 -1,0 -2,1 -2,0 -3,1 -5,1 0,0 0,0 0,0 -1,0 -1,0 -1,0 -1,0 0,1 0,2 0,1 -1,1 -1,2 0,0 1,1 1,1 0,1 0,1 0,2 0,1 0,1 0,2 -2,0 -2,-4 -3,-5 0,-1 0,-2 0,-4 0,0 0,-1 0,-1l0 -4c0,0 0,-1 0,-1 1,-1 1,-2 1,-3 0,-1 1,-3 1,-4 1,-1 2,-2 3,-3l1 -3c0,0 1,-1 1,-1 0,0 0,0 0,-1 1,0 1,0 1,-1 0,0 1,-1 1,-1 1,-1 2,-3 3,-3 0,-1 0,-1 0,-1 1,-1 2,-2 2,-3 1,0 2,0 2,0 1,1 0,2 1,3 1,1 2,0 3,0 1,0 1,0 1,0 1,0 2,-1 2,-1 1,0 2,-1 3,-1 0,0 1,-1 2,-1 -1,-1 -1,-1 1,-2 1,0 1,0 1,0l5 -3c2,-1 3,-2 5,-3 0,0 0,0 0,0l1 -1c0,0 0,0 0,0 2,-1 2,-1 4,-2l0 -1c1,0 1,0 1,0 0,-1 1,-1 1,-1l2 -2c0,0 0,0 1,0 1,-1 2,-2 3,-3 0,0 1,0 1,-1l4 -3c1,-1 2,-3 3,-4 0,0 0,0 0,-1 1,0 1,-1 1,-2 1,0 1,-1 2,-2 1,-2 0,-3 0,-5l-1 -2c0,-1 -1,-2 -2,-3 0,0 -1,-1 -2,-2 -1,0 -2,-1 -3,-1l-2 -2c0,0 -1,0 -1,0l-3 -1 -4 -1c-2,0 -3,0 -5,0 -1,-1 -3,0 -4,0 0,0 0,0 0,0l-3 0c-3,0 -3,0 -6,0 -1,0 -2,0 -2,0 -1,0 -2,1 -3,1 -1,1 -2,0 -3,0 -1,0 -3,0 -4,1l-5 1c0,0 -1,0 -2,0l-4 1c-3,1 -3,2 -5,2 0,0 0,0 0,0 -1,0 -1,1 -1,1 -1,0 0,0 -1,0 0,1 -1,1 -1,1 -1,0 -2,0 -3,0l-1 1c0,0 0,0 0,0 -1,0 -2,1 -3,1 0,0 -1,1 -3,2 0,0 -1,0 -1,0 -1,0 -1,1 -1,2 -1,1 -1,0 -2,1 -1,0 -1,0 -1,0 0,1 -1,1 -2,2 0,0 0,0 0,0 0,0 -1,1 -1,1l-4 3c0,1 0,1 0,2 0,0 0,1 0,1l0 1c0,0 0,-1 1,-1 0,0 1,0 1,0 1,0 1,0 1,0 0,0 1,-1 1,-1 0,1 0,1 -1,2 -1,0 0,0 -1,1 0,0 -1,0 -1,1 0,0 1,0 1,0 0,0 0,0 1,0 0,1 -1,1 -1,1 -1,1 -1,2 -1,3 0,0 0,1 0,1 0,1 1,1 1,1 0,1 -1,1 -1,2 0,1 1,0 0,2 0,0 1,0 1,0 0,0 0,0 0,1 0,0 0,0 0,0 0,0 1,1 1,1 0,0 1,1 1,1 1,1 1,2 1,2 0,0 1,0 1,0 1,1 1,2 2,2 0,0 0,0 0,0 1,1 2,2 3,2 1,0 1,1 2,1 1,0 1,0 3,0 0,0 1,1 2,1 2,0 2,0 5,0 3,0 5,-1 7,-1l2 2c0,0 1,1 1,1 0,1 0,1 0,1 0,1 0,1 0,1 0,1 0,2 -1,2l-4 8c0,0 -1,1 -1,1 -1,1 -1,1 -1,1 0,1 0,1 0,1l-1 0c0,1 -1,1 -1,1 0,0 0,0 0,0l0 0c0,0 0,0 0,0 0,0 0,0 0,0 0,1 -2,3 -3,3 -2,1 -1,2 -2,2 0,0 0,0 0,1l-1 2c-1,0 -1,0 -1,1 -1,0 -1,1 -1,1 0,1 0,1 0,2 -1,0 -1,0 -1,0l-1 2c0,1 0,1 0,2 0,0 -1,1 -1,1 0,1 0,1 0,2 0,0 0,0 0,1 -1,2 0,5 1,6 0,1 0,2 1,3 0,0 0,0 0,0 0,0 0,0 1,0l0 1c2,2 1,2 4,4 0,0 1,0 1,1 1,0 1,0 2,1 0,0 1,0 1,0 0,0 -1,0 -1,0 -1,1 -1,0 -2,0l-1 0c0,0 0,0 0,-1l-2 -1c0,0 0,0 -1,0 0,0 -1,-1 -2,-1 -1,-1 -1,-2 -2,-2l0 -1c-1,-1 -2,-2 -2,-3 0,0 -1,0 -1,0 0,-1 0,-1 0,-2 -1,-1 -2,-3 -2,-5 -1,-2 0,-2 0,-3 0,-1 -1,-1 -1,-1 -1,0 -2,0 -2,0 -2,1 -4,2 -6,2 -2,0 -3,0 -4,-1 -1,0 -3,-1 -4,-1 0,-1 -1,-2 -2,-2 0,-1 0,0 -1,0 0,-2 0,-3 0,-4 0,-1 1,-2 1,-2 0,-1 0,-2 0,-2 1,0 1,0 1,1 1,0 1,-1 1,-1 1,0 2,-1 2,-2 1,-1 2,-1 3,-2 0,-1 0,-2 0,-2 0,-1 1,-2 2,-1 1,0 0,0 1,0 1,-1 2,-1 3,-2 0,-1 1,-1 2,-1 2,-1 4,-3 6,-4 0,0 1,0 1,0 3,-1 4,-1 7,-1 0,-1 0,-1 1,-1 0,0 0,0 0,0 0,-1 -1,-1 1,-2 0,0 0,0 1,-1 0,0 0,-1 0,-1 -1,0 -1,0 -1,0l-2 -1c-1,0 -1,0 -2,0 -1,-1 -2,-1 -3,-1 0,-1 0,-1 -1,-1 -1,0 -1,0 -2,-1 0,0 0,0 -1,0l-2 -1 -2 -2c-1,-1 -3,-2 -4,-3 -2,-1 -3,-2 -4,-3 -1,0 -1,-1 -2,-1 0,-1 -1,-2 -1,-2 0,-1 0,-1 -1,-1 0,-2 -1,-3 -1,-5 0,-1 1,-2 1,-2l0 -2c1,-2 2,-3 3,-4 0,-1 0,-2 1,-2 1,-2 1,-2 3,-3l1 -2c1,0 2,-1 3,-2l5 -2c1,-1 2,-1 2,-1 1,-1 1,-1 2,-2 1,0 2,0 3,0 2,-1 4,-2 6,-2 0,-1 1,-1 2,-1 0,0 1,-1 1,-1 1,0 2,0 3,0 1,-1 2,-1 3,-1 1,-1 2,-1 3,-1 2,-1 5,-1 8,-2 2,0 1,0 3,0 2,-1 3,-1 5,-1 1,0 2,0 4,0 0,0 0,0 0,0l3 0c0,0 0,-1 0,-1 2,0 3,0 5,0zm-50 67c0,2 -1,2 -1,2 0,1 0,1 0,1l-3 5c0,1 0,1 -1,1 0,0 0,0 0,0 0,0 -1,0 -1,1 0,-1 0,-2 -1,-2 -1,0 -2,-1 -2,-1 -2,-3 0,-2 1,-4l1 -1c0,-1 2,-2 3,-2 1,-1 1,-1 2,-1l1 0c0,0 1,0 1,0 0,1 0,0 1,1 -1,0 -1,0 -1,0zm9 -4c0,0 0,0 0,-1 0,0 1,0 1,0 0,0 0,0 0,0 0,-1 0,0 1,-2 1,0 1,-1 1,-1 1,-1 1,-1 2,-1 0,1 0,1 0,1 0,1 -1,1 -1,2l-1 1c0,0 -1,0 -1,0 0,0 0,0 0,0 -1,1 -1,1 -2,1zm26 7c-1,0 -3,-1 -4,-2 -1,-1 -3,-2 -4,-2 -2,0 -2,1 -4,2l-3 2c0,0 -1,1 -2,1 0,0 0,0 0,-1 0,0 0,0 1,0 0,-1 0,-1 0,-1 0,-1 1,-1 1,-2 0,-1 0,0 1,-1 0,-1 0,-1 1,-1 0,-1 0,-1 0,-1 1,-1 2,-1 2,-2 0,-1 0,-1 0,-1 0,0 2,0 3,-2 1,0 1,-1 2,-2 0,0 1,0 2,1 1,0 1,1 3,1 1,0 4,-2 5,-2l5 -2c0,-1 1,-1 2,-1 1,0 1,0 2,-1 0,0 0,0 1,0 1,0 5,-1 6,-1 1,0 2,0 3,0 0,1 0,1 0,1 0,1 0,1 0,1 0,1 0,1 0,1 -1,1 -1,1 -2,1 0,1 0,1 0,1 -1,1 -2,1 -3,2 0,0 0,0 0,0 0,0 0,0 0,0 0,1 -1,1 -1,1 -1,0 -1,1 -2,1 -1,1 -2,2 -2,2 -1,0 -1,0 -1,1 0,0 0,0 -1,0 0,0 0,0 0,0l-8 5c0,0 -3,1 -3,1z"/>
     <g>
      <path class="fil2" d="M841 147l-24 -1 24 1zm0 0c0,0 -1,-1 -1,-1 0,0 1,-1 1,-1l1 -2c0,0 0,0 0,0 0,0 0,1 0,1 0,1 0,2 -1,3 0,0 0,0 0,0zm-6 -2l-4 -1 4 1zm0 0c0,0 0,0 0,-1 1,-1 2,-2 2,-1 0,1 -1,2 -2,2zm-26 0c0,0 0,-1 1,-2 1,0 1,-1 1,-1 1,0 0,1 0,1 0,1 0,1 -1,2 0,0 -1,0 -1,0zm5 3c0,0 0,-1 0,-2 1,-1 3,-2 4,-3 0,0 1,0 1,0 -1,0 -1,1 -1,1 -1,1 -1,2 -2,3 0,0 -1,1 -2,1zm3 -2c0,1 0,2 0,3 0,0 0,1 1,1 0,0 1,-1 1,-1 0,0 0,0 0,0l1 -1c1,-1 1,-1 1,-2 1,0 1,0 1,0 0,1 -1,3 -1,4 1,0 1,0 2,0 0,0 1,-1 2,-2l1 -1c0,0 0,2 1,2 0,0 1,-2 1,-2 1,-1 2,-3 3,-3l-1 2c-1,1 -1,2 -1,3 0,1 1,1 1,0 0,0 1,0 1,0l0 0c1,-1 2,-2 2,-2 0,1 0,2 1,3 1,0 2,0 3,-1 0,0 0,0 0,-1 1,0 1,0 1,-1l1 0c0,1 1,2 2,2 1,1 2,0 3,-1 0,0 0,-1 1,-1 0,0 0,0 0,-1 0,0 -1,0 -1,1 -1,0 -1,1 -2,1 -1,0 0,-1 1,-2 1,-1 1,-2 1,-3 0,-1 0,-2 0,-2 0,-1 0,-1 -1,-1 0,0 -1,1 -1,1 0,1 0,1 0,1 -1,1 -3,4 -4,5 0,0 -1,0 -1,1 -1,0 -1,0 -2,0 0,0 0,-1 0,-2 0,0 0,0 1,0 0,0 0,-1 0,-1 1,0 3,-2 3,-3 -1,-2 -3,-1 -3,0 -1,0 -1,0 -1,1l-1 0c-1,2 -1,3 -1,3 0,0 0,0 0,0l-1 1c0,0 0,0 -1,0 0,0 0,0 0,0 0,0 0,0 0,0 0,0 0,0 0,0 0,0 0,0 0,0 0,0 0,0 0,0 0,-1 0,-2 1,-3 0,-1 1,-1 0,-2 0,-1 -1,0 -1,0 -1,1 -2,2 -2,3 -1,0 -2,2 -2,2l0 -1c0,-1 0,-1 1,-1l1 -2c0,-1 1,-1 1,-1l3 -5c0,-1 1,-2 1,-2 -1,-1 -1,-1 -2,0 -1,0 -4,7 -5,8 -1,1 -1,2 -1,3 0,0 0,0 0,0 -1,0 -2,1 -2,2 -1,0 -1,0 -1,-1 0,-1 0,-2 0,-2 1,-1 1,-2 1,-2 1,0 1,0 2,0 0,-1 1,-2 1,-3 0,0 0,0 -1,0 0,0 0,-1 1,-1l0 -1c0,0 0,0 0,0 0,0 -1,0 -1,0 -1,1 -1,1 -1,2 -1,0 -2,0 -3,1 0,0 0,1 0,2 0,0 0,0 0,0 0,-1 1,-1 1,-1 0,1 0,1 0,1 0,0 0,0 0,0 -1,1 -1,2 -2,3 0,0 0,0 -1,1 0,0 0,0 0,0 -1,0 -1,1 -2,0 0,-1 1,-1 1,-2 0,0 0,-1 1,-1 0,-1 -1,-1 -1,-2 0,0 1,0 1,0 0,0 0,-1 -1,-1 0,0 -1,0 -2,0 -1,1 -1,1 -2,2 0,0 0,0 0,0 -1,0 -2,2 -2,3 0,0 0,0 -1,0 0,1 0,1 -1,2 -1,0 -2,0 -2,-1 0,0 0,0 0,-1 0,0 1,0 1,0 1,-1 1,-1 2,-1 0,-1 0,-1 0,-1 2,-2 1,-4 -2,-2 0,0 0,0 0,0 0,0 0,0 -1,0 0,1 -1,2 -1,2 0,0 0,1 0,1 0,0 -1,0 -1,0 0,1 0,1 0,1 -1,1 -1,1 -2,1 0,0 0,0 0,0 0,0 0,-1 0,-2 0,0 1,0 1,0 0,-1 0,-1 1,-2 0,0 0,-1 -1,-1 0,-1 0,0 0,0 -1,0 -2,0 -2,0 0,0 0,-1 0,-1 -1,0 -2,1 -2,1 0,1 -1,3 0,3 0,0 0,1 -1,1 0,0 0,1 0,1 1,0 1,-1 1,-1 0,0 1,-1 1,-2 0,0 1,0 1,0 0,0 1,0 1,0 -1,1 -2,3 -2,5 1,1 2,0 3,0 0,-1 1,-2 1,-2 0,1 0,2 1,2 0,1 1,1 2,1 0,-1 1,-1 1,-1l1 -1c0,0 1,-1 1,-1 0,0 0,2 1,2 1,1 1,0 1,0l2 -2c0,0 0,-1 0,-1z"/>
     </g>
     <path class="fil2" d="M724 146c0,0 0,0 0,0 0,0 0,0 0,0zm-3 2c0,0 0,-1 0,-1 0,-2 3,-4 4,-4 0,0 -1,2 -1,2 -1,1 -2,3 -3,3zm8 -4c0,-1 1,-2 2,-3 0,-1 2,-5 3,-5 0,1 0,2 -1,2 0,1 0,1 0,1l-2 2c0,1 0,1 0,1 -1,1 -2,2 -2,2zm-3 3c-1,0 -1,0 -1,-1 0,-1 1,-2 1,-2 0,-1 0,-1 0,-2 0,0 0,0 0,0 0,-1 0,-1 0,-1 -1,0 -3,1 -4,1 0,1 -1,2 -1,2 -1,1 -1,2 -1,3 0,0 0,2 1,2 0,1 0,0 1,0l1 -1c0,-1 1,-2 1,-2 0,0 0,1 0,1 0,0 -1,3 0,3 1,0 2,-1 2,-1 0,-1 1,-1 1,-1 0,0 0,-1 1,-1 0,1 0,3 1,3 1,0 1,-1 2,-1 0,-1 0,-1 1,-2 0,0 0,1 2,0 0,0 0,0 0,0 0,0 1,-1 1,-1 0,-1 0,-1 0,-1 0,0 0,0 0,0 0,-1 1,-1 1,-1 0,0 1,0 1,0l0 1c0,0 -1,0 -1,1 0,1 0,1 0,2 0,1 0,1 1,1 0,0 2,-1 2,-1 0,-1 0,-1 1,-1 0,1 0,3 1,3l0 0c1,0 2,-2 3,-2 0,0 0,-1 0,-1 0,1 1,3 2,3 1,0 2,-1 2,-2l2 -1c0,0 0,-1 0,-1 -1,0 -2,2 -4,2 0,0 0,0 0,0 -1,-1 -1,-2 0,-3 0,0 1,0 1,0 0,-1 0,-1 0,-1 0,0 0,0 1,0 0,0 -1,1 0,1 0,0 2,-3 1,-4 0,-1 -2,1 -3,2l-1 1c0,0 -1,1 -1,2 0,0 0,0 0,1 -1,0 -1,1 -2,1 -1,0 -2,-1 0,-3 0,-1 1,-1 1,-2 0,-1 1,-1 0,-1 -1,0 -2,0 -2,1 0,0 -1,1 -1,2 0,1 0,1 -1,1 0,1 0,1 -1,1 0,0 -1,0 -1,0 0,-1 1,-2 2,-3 0,0 0,-1 0,-1 0,-1 0,-1 0,-1 -2,0 -2,0 -3,0 0,0 1,-1 0,-1 -1,0 -3,3 -1,4 0,0 -1,1 -2,1 0,0 0,0 -1,0 1,0 1,-1 1,-1 0,-1 1,-4 -1,-2 -1,1 -1,2 -1,3 0,0 0,0 0,1 -1,0 -1,1 -2,1 0,0 0,-2 0,-2 0,-1 1,-2 1,-2 1,-1 2,-3 3,-4 1,-2 2,-4 2,-5 0,-2 -3,1 -3,2l-2 2c0,0 0,0 0,0 -1,2 -2,4 -2,6 -1,1 0,1 -1,2 0,0 -1,0 -1,0z"/>
     <path class="fil2" d="M881 133c0,0 1,-1 1,-1 0,0 0,0 0,0 0,1 0,1 -1,1zm-12 0c0,0 -1,0 -1,-1 0,-1 1,-1 1,-2 1,0 2,-1 3,0 0,0 0,0 -1,1 0,1 0,1 -1,1 0,0 -1,1 -1,1zm3 -4c0,0 -1,0 -1,0l-1 0c-1,0 -3,1 -3,3 -1,0 -1,0 -1,0 0,0 0,0 0,0 -1,1 -2,2 -3,2 0,0 0,0 0,0 -1,-1 -1,-2 -1,-2 1,0 2,0 2,0 1,-1 1,-1 2,-1 0,-1 1,-1 1,-2 0,-1 0,-1 0,-1 0,0 1,0 1,0l5 0c0,0 0,0 0,0 0,0 -1,1 -1,1zm11 -1c-1,0 -2,0 -3,1 0,0 -1,1 -2,1 0,1 0,1 0,1 -1,1 -1,1 -2,2 0,0 0,1 -1,1 0,-1 0,-1 1,-1l1 -2c0,0 0,0 0,-1l2 -3c0,0 1,0 1,0l1 0c0,0 0,0 1,0l2 0c0,0 -1,1 -1,1zm6 -2c-1,0 -2,0 -3,0 0,0 0,0 0,-1 0,0 0,-1 0,-1 0,0 1,0 1,0 1,-1 2,-1 2,0 0,1 0,1 0,2zm-5 0l0 0c0,0 -1,0 -1,0 -1,0 -1,1 -1,1 0,0 -1,0 -1,0l-16 0c0,0 -1,1 -2,1l-2 0c-1,0 -1,0 -2,0 1,1 1,0 1,0 0,0 1,0 1,0 0,0 0,0 0,0 1,0 2,0 2,0 0,0 0,0 0,1 1,0 1,-1 2,-1 0,0 1,0 1,1 0,0 -1,1 -2,1 0,1 0,1 -1,1 -1,1 -1,0 -2,0 -1,0 -2,1 -2,1 0,1 1,0 1,0 1,1 1,1 1,1 1,2 1,3 2,2 1,-1 2,-2 3,-2l1 -1c0,0 -1,0 0,1 0,1 1,1 2,1 1,-1 1,-1 1,-1 0,0 0,1 0,1 0,0 0,1 0,1 1,0 2,-1 3,-2 0,0 0,0 0,0 1,0 2,-2 2,-2 0,-1 -1,0 -1,0 0,0 0,0 0,0l-1 1c0,0 -1,2 -2,2 0,-1 1,-1 1,-2l3 -4c0,0 0,0 0,0l2 -1c0,1 -1,3 -1,3l-2 3c-1,1 0,2 2,1l1 -1c0,0 0,0 0,-1 1,0 1,0 1,0 0,1 1,2 2,2 1,0 1,0 1,1 1,0 1,0 2,0 0,0 0,0 0,-1 0,0 0,0 0,0 -1,1 -1,0 -2,0 2,0 3,-1 3,-3 -1,-1 -2,0 -2,0 -1,0 -1,1 -1,1 -1,1 -1,1 -1,1 0,0 0,-1 0,-1 0,-1 0,-1 0,-2 1,-1 1,-1 3,-1 0,0 0,0 0,0l1 0c1,-1 1,-1 1,-1 0,0 0,-1 1,-1 0,0 1,0 1,0 0,0 0,0 1,0 0,0 0,0 0,0 0,0 0,0 0,1l-3 4c-1,1 0,3 3,0 0,0 2,-2 2,-2 0,0 -1,0 -1,0 0,0 -1,1 -1,1 0,1 -1,2 -2,2 0,0 0,-1 0,-1 0,0 1,0 1,-1l1 -1c0,0 0,0 0,-1 0,0 2,-2 2,-2l4 0c0,-1 0,-1 0,-1 0,0 -1,0 -2,0l-1 0c0,0 0,0 -1,0 0,0 0,0 1,-1 0,-1 -1,-2 -3,-2 -1,0 -3,0 -3,2 -1,0 -1,0 -1,1z"/>
     <path class="fil2" d="M777 146c0,0 0,0 0,0l0 0zm-3 2c-1,0 -1,-2 1,-3 1,-1 2,-2 3,-2 0,0 -1,1 -1,1 0,1 0,1 -1,1 0,1 0,1 -1,2 0,0 -1,1 -1,1zm-9 -1c0,1 0,2 1,2 0,0 0,0 0,0l1 -2c0,0 1,0 1,0 0,-1 1,-2 2,-3 0,0 0,0 0,1 -1,1 -2,2 -2,4 0,0 1,1 1,1 1,0 2,-2 3,-3 0,0 0,0 0,0 0,0 1,2 1,2 1,1 1,0 1,0 1,-1 2,-1 2,-2 0,0 0,0 0,0 0,-1 1,-1 1,-1 0,1 -1,4 0,4 1,0 2,-2 3,-2 0,-1 0,-1 0,-1 0,0 1,-1 1,-1 0,0 0,0 0,1 0,0 -1,2 0,2 0,1 0,1 0,1 1,1 3,-2 4,-3 0,0 0,0 0,-1 0,0 -1,2 -2,2 -1,0 -1,-1 -1,-1 0,-1 1,-3 1,-4 0,0 1,0 1,0 0,0 1,0 1,0 0,-1 1,-2 1,-3 0,0 0,0 -1,0 1,-1 1,-1 2,-2 -1,0 -1,0 -1,0 -1,0 -2,1 -2,2 0,0 -1,0 -1,0 -1,0 -1,1 -2,1 0,1 0,1 0,2 0,0 0,-1 2,-1 0,1 -1,2 -1,2 -1,1 -1,1 -2,2 0,0 0,0 0,0 0,1 0,1 0,1 -1,0 -1,0 -2,0 0,0 0,0 0,-1 0,-1 1,-2 1,-2 0,-1 0,-1 0,-2 0,0 0,0 0,0 0,-1 0,-1 -1,-1 0,0 -2,0 -2,1 -1,0 -2,1 -2,1 -2,3 -1,3 -2,3 0,0 -2,2 -2,1 0,-1 0,-2 1,-2 0,-1 0,-1 0,-1 1,-1 1,-1 1,-2 -1,-1 -2,0 -2,1 -1,0 -2,2 -3,2 0,1 0,1 0,1 0,0 0,1 -1,1 0,-2 0,-1 2,-4l1 -1c0,-1 4,-6 4,-7 0,0 -1,-1 -1,-1 0,0 -1,1 -1,2 0,0 0,0 0,0l-2 2c0,0 0,0 0,0 -1,2 -2,4 -3,5 -1,1 -1,2 -1,4z"/>
     <path class="fil2" d="M795 147c0,0 -1,0 -1,0 -1,-1 0,-3 1,-4 0,0 1,0 1,0 1,1 3,1 3,2l0 0c0,1 -2,2 -4,2zm-4 -8c0,1 0,1 0,1 1,0 3,-1 4,-2 0,0 -1,0 -1,0 0,0 1,0 1,-1 1,0 1,0 2,0 1,0 5,-1 5,1 0,2 -3,2 -4,3 -1,0 -1,0 -1,0 0,-1 2,-3 2,-3 -1,0 -2,0 -2,1 -1,0 -1,1 -2,1 0,1 0,1 -1,1 -1,0 -2,0 -2,1 0,0 0,1 0,1 1,0 1,0 1,0 0,0 0,0 0,0 -1,2 -2,3 -2,5 0,0 1,1 1,1 2,2 5,1 6,0 1,-1 1,-1 2,-1 0,0 0,-1 0,-1 0,0 1,-1 1,-1 0,0 0,-1 0,-1 -1,-1 -3,-2 -4,-2 0,0 -1,-1 -1,-1 0,0 0,0 0,0 1,0 4,-1 5,-2 0,0 0,0 1,0l0 -1c2,-2 1,-5 -2,-5 -1,0 -2,0 -4,1 0,0 -2,0 -3,1 -1,0 -2,3 -2,3z"/>
     <path class="fil2" d="M709 141c0,0 1,0 1,0 1,-1 1,-1 2,-1 0,0 0,0 0,0 0,0 0,0 0,0 0,0 -1,0 -2,0 2,-1 5,-2 7,-2 1,0 2,-1 2,0 0,1 -1,3 -1,3l-1 2c0,0 0,1 0,1 -3,0 -2,0 -4,0 -1,1 -1,1 -1,1 -1,0 -1,0 -1,1 0,0 1,0 1,0 1,0 2,0 3,0 0,0 0,1 -1,1l-1 2c0,0 -2,0 -3,2 0,1 -1,1 -1,2 0,0 1,0 1,0 1,0 3,-2 3,-3l1 -1c0,0 0,0 0,0l2 -3c0,0 1,0 1,0 0,0 1,0 1,0 0,0 1,-2 1,-2l-1 0 1 -2c0,0 0,0 0,-1 1,-1 2,-3 2,-4l0 -1c0,-1 -1,-1 -2,-1 -2,0 -4,0 -6,1 -1,0 -2,0 -3,1 0,0 0,0 0,1 -1,0 -1,1 -1,2 0,0 0,0 0,0 0,1 0,1 0,1z"/>
     <path class="fil2" d="M755 139c0,1 1,1 1,1 1,0 2,0 2,0 0,0 -1,0 -2,-1 1,0 1,0 1,0 1,-1 5,-1 6,-1l1 0c1,0 1,0 1,0 0,0 0,0 0,0l-1 2c-1,2 -2,4 -3,5l-1 2c0,1 -1,2 -1,3 0,1 1,2 2,-1 1,0 1,-1 1,-2 0,0 0,0 0,0 0,0 0,0 0,0l3 -6c0,0 0,-1 0,-1 1,-1 2,-2 2,-3 0,0 -1,-2 -1,-2 -1,-1 -4,-1 -5,-1 -2,1 -4,1 -5,3 -1,0 -1,2 -1,2z"/>
     <path class="fil2" d="M895 124c0,1 0,2 0,4 0,0 0,1 -1,1l-1 2c-1,1 -2,2 -3,3l-1 1c0,0 0,0 0,1 0,-1 2,-2 2,-2 1,-1 1,-1 2,-1l1 -2c1,-1 3,-4 3,-5 0,-1 0,-1 -1,-2 0,0 0,-1 0,-1 0,0 -1,0 -1,0 0,0 0,1 0,1z"/>
     <path class="fil2" d="M853 135c0,2 0,2 0,3 1,-1 1,-1 1,-1 0,0 0,0 1,0 -1,0 -1,-1 -1,-2 0,-1 0,-1 0,-2 1,-3 4,-5 6,-7 1,-1 0,0 0,-1 0,0 0,0 0,0 -1,1 -1,1 -3,2 0,0 0,0 0,0l-2 2c0,1 -1,2 -2,3l0 0c0,1 0,2 0,3z"/>
     <path class="fil2" d="M743 140c0,1 1,1 1,1 1,-1 1,-3 0,-3 0,0 0,1 -1,1 0,0 0,1 0,1z"/>
    </g>
    <path class="fil3" d="M632 82l0 13 3 0c2,0 4,-1 5,-2 1,0 2,-2 2,-4 0,-2 -1,-4 -2,-5 -1,-1 -3,-2 -5,-2l-3 0zm0 -13l0 12 3 0c2,0 4,-1 5,-1 0,-1 1,-3 1,-5 0,-2 -1,-4 -1,-5 -1,0 -3,-1 -5,-1l-3 0zm-8 -1c1,0 2,0 3,0 0,0 1,0 2,0 1,0 3,0 5,0 1,0 2,0 2,0 3,0 6,0 7,1 2,1 3,3 3,6 0,2 -1,3 -2,5 -1,1 -3,1 -5,2l0 0c2,0 4,1 6,2 1,1 2,3 2,5 0,3 -1,5 -3,6 -1,1 -4,2 -8,2 -1,0 -2,-1 -4,-1 -1,0 -2,0 -3,0 0,0 -1,0 -2,0 -1,0 -2,0 -3,1l0 -2c2,0 2,0 3,-1 0,0 0,-1 0,-2l0 -20c0,-1 0,-2 0,-2 -1,-1 -2,-1 -3,-1l0 -1zm25 9c0,0 1,0 2,0 1,0 1,0 2,0 1,0 2,0 2,0 1,0 2,0 3,0l0 1c-1,0 -1,1 -2,1 0,0 0,0 0,1 0,0 0,0 0,0 0,0 0,1 0,1l4 10c2,-4 3,-7 3,-9 0,-1 1,-2 1,-2 0,-1 -1,-1 -1,-1 0,0 -1,-1 -2,-1l0 -1c1,0 1,0 2,0 1,0 1,0 2,0 0,0 0,0 1,0 0,0 1,0 2,0l0 1c-1,0 -1,1 -2,1 0,0 -1,1 -1,2l-6 17c-1,3 -2,5 -3,6 -1,1 -2,2 -4,2 0,0 -1,-1 -1,-1 -1,0 -1,-1 -1,-2 0,0 0,-1 0,-1 1,0 1,0 2,0 1,0 1,0 2,0 0,1 0,1 1,1 0,0 1,-1 1,-2 1,-1 1,-3 2,-5l-7 -15c0,0 0,0 0,0 0,-2 -1,-2 -2,-3l0 -1z"/>
   </g>
  </g>
 </g>
</svg>
