<?xml version="1.0" encoding="UTF-8"?>
<!DOCTYPE svg PUBLIC "-//W3C//DTD SVG 1.1//EN" "http://www.w3.org/Graphics/SVG/1.1/DTD/svg11.dtd">
<!-- Creator: CorelDRAW X7 -->
<svg xmlns="http://www.w3.org/2000/svg" xml:space="preserve" width="1.00921in" height="0.173138in" version="1.1" style="shape-rendering:geometricPrecision; text-rendering:geometricPrecision; image-rendering:optimizeQuality; fill-rule:evenodd; clip-rule:evenodd"
viewBox="0 0 1009 173"
 xmlns:xlink="http://www.w3.org/1999/xlink">
 <defs>
  <style type="text/css">
   <![CDATA[
    .fil1 {fill:black}
    .fil0 {fill:#CBAE3B}
    .fil2 {fill:black;fill-rule:nonzero}
   ]]>
  </style>
 </defs>
 <g id="Layer_x0020_1">
  <metadata id="CorelCorpID_0Corel-Layer"/>
  <g id="_1392657485328">
   <rect class="fil0" width="1009" height="173" rx="87" ry="87"/>
   <g>
    <g>
     <path class="fil1" d="M704 102l1 -1c0,-1 0,-1 1,-2 0,-1 0,-1 1,-1 0,-1 1,-2 2,-2 0,-1 0,-1 0,-1 0,0 2,2 3,2 0,1 1,1 1,1 0,1 0,1 1,1 -1,0 -1,0 -1,0 -1,1 -1,1 -1,1 0,0 0,0 0,0 -2,1 -1,0 -3,1 -1,0 -3,1 -5,1zm83 -16c0,5 1,9 3,13 0,1 1,2 1,4 1,2 3,5 4,6 0,1 1,2 2,3 0,0 1,1 1,2l1 1c0,0 1,1 2,2 0,0 0,0 1,0 0,0 -1,0 -1,-1l-2 -3c0,-1 -1,-3 -2,-5 0,0 0,0 0,0 0,-1 0,-1 0,-1 0,0 0,-1 0,-1 -2,-6 -2,-9 -2,-15 0,-4 1,-9 2,-13 1,-4 3,-7 5,-10 1,0 1,-1 1,-1l1 -1c1,-1 1,-2 0,-3 -1,-1 -4,-2 -5,-1 -2,1 -3,2 -3,3 -1,0 -1,1 -2,2 0,0 0,0 0,0 -1,1 -1,1 -1,1 -1,1 -2,3 -2,4 -2,5 -4,10 -4,14zm-145 24c0,-1 0,-1 0,-2 0,-1 1,-2 1,-3 1,-1 3,-2 4,-4 0,0 0,0 1,0 0,-1 0,-1 0,-1l2 -1c2,-1 2,-2 4,-2l2 -1c1,-1 1,-1 1,-1 0,0 1,-1 1,-1 1,0 1,0 2,0 1,-1 1,-1 2,-2l3 -1c1,0 1,0 2,0 0,0 1,0 2,0 0,0 -1,2 -1,2 0,0 0,1 -1,1 -1,2 -3,3 -5,5 0,0 -1,0 -1,0l-2 2c-1,0 -1,0 -2,1 0,0 -1,1 -1,1l-2 1c-1,1 -1,1 -2,1 -2,1 -4,2 -5,3 -1,1 -4,2 -5,2zm30 -25c-1,0 -1,0 -1,0 -1,0 -3,0 -3,0 -3,0 -5,0 -6,1 -1,0 -2,1 -3,1 0,1 -1,1 -1,1 0,0 -1,0 -1,1 -2,1 -4,2 -6,3 -2,1 -4,3 -6,4l-1 1c0,0 0,0 0,0 -1,1 -2,1 -2,2l-1 1c0,0 0,0 0,0 -1,1 -2,1 -2,2 0,0 -1,0 -1,0 -1,1 -2,3 -2,4 -1,1 -1,2 -1,3 0,1 0,3 1,3 1,1 6,3 8,3 1,0 2,0 3,0 2,-1 4,-2 6,-3 1,-1 4,-2 4,-3 1,0 2,0 3,-1 0,-1 0,-1 1,-1 0,0 1,-1 2,-1 0,-1 0,-1 0,-1 1,-1 2,-2 4,-3 0,2 1,4 2,5 0,1 1,0 3,1 0,0 1,1 1,1 1,0 2,0 2,0 1,1 1,0 1,0 0,0 1,0 1,-1 0,0 0,0 0,0 0,0 0,0 0,0 1,-1 2,-1 2,-2 0,-1 1,-2 1,-2 1,-2 1,-3 3,-4 0,0 1,-2 1,-1 0,1 0,1 0,2 0,0 0,0 0,1 0,0 0,1 1,1 0,1 0,1 0,2 0,0 0,0 1,0 0,1 0,0 0,1 1,0 1,0 2,0 0,0 1,1 1,1 0,-2 -1,-2 -1,-4 0,0 0,0 0,0 1,-1 0,-1 0,-1 0,-2 0,-3 1,-5 1,-1 1,-1 1,-2 0,0 0,0 0,-1l0 0c1,0 1,0 1,0 0,-1 0,-1 1,-2 0,0 0,0 0,-1l1 0c0,0 0,-1 0,-1 0,0 1,0 1,0 0,0 0,0 0,0 0,-1 -2,-2 -3,-2 0,-1 0,-2 0,-3l0 0c0,0 -1,0 -2,0 -2,0 -4,2 -6,3 0,0 -1,1 -2,2 -1,0 -2,2 -3,1 -1,0 0,0 0,-1 0,0 0,0 0,0l2 -3c0,0 0,0 0,-1 1,0 1,-1 1,-2 1,-1 1,-2 2,-3 0,0 0,-1 1,-1 -1,0 -1,0 -2,-1l-2 -2c0,0 0,0 0,0 0,-1 -1,-1 -1,-1 -2,-1 -2,0 -3,1 0,1 -2,3 -2,4 0,0 0,0 -1,0 0,0 0,1 0,2 0,0 -1,2 -1,2zm104 -70l0 0c2,0 2,1 4,1 0,0 1,0 2,0l2 0c1,0 1,0 1,0 1,0 2,0 3,0 1,0 2,1 3,1 1,1 2,1 4,1 1,1 2,1 4,2 1,1 1,2 2,2 1,0 1,1 1,1 1,1 2,1 3,3 1,1 3,6 2,8 0,1 -2,5 -2,5 0,0 0,0 0,0 0,1 -1,1 -1,1 0,1 -1,2 -1,2 -1,1 -1,1 -1,1 0,0 -1,1 -1,1 0,0 -1,1 -1,1 0,0 -1,1 -1,1l-2 2c0,0 0,0 0,0 -1,1 -7,6 -8,7 -1,0 -1,0 -2,1 0,0 0,0 0,0 -2,2 -4,3 -6,4 0,0 0,0 0,1l-5 2c-1,1 -2,2 -3,2 0,1 -1,1 -2,1 0,0 -1,1 -1,1 0,0 0,0 -1,0 0,0 -1,1 -1,1 0,0 0,0 0,0 0,0 0,1 0,1 0,0 0,0 0,0 0,-1 1,-1 1,-1 1,0 3,0 4,-1 1,0 4,0 5,0 1,0 1,0 2,0 0,0 0,0 1,0 0,0 0,0 0,0 2,0 3,0 5,1 0,0 1,1 2,2 0,0 0,0 0,1 0,0 0,1 0,1 0,1 -1,2 -1,3l-1 0c0,0 0,0 0,0l-1 1c0,0 0,1 -1,1l-2 1c0,1 0,1 -1,1l-2 2c0,0 0,0 0,0l-1 1c0,0 -1,0 -1,1l-1 0c-1,1 -2,2 -4,3 0,0 -1,1 -2,1l-8 5c-2,1 -4,1 -3,3 1,1 1,2 1,2 1,1 1,2 1,3 1,2 2,3 3,4l5 4c0,1 0,1 1,1l3 3c0,0 0,0 0,0 1,1 2,2 3,2 1,1 1,1 2,1 1,1 2,1 3,2 2,1 3,1 4,1 1,0 2,0 3,1 1,0 2,0 3,0 1,0 2,0 3,1 1,0 1,0 2,0 1,0 1,0 1,0 1,0 1,0 2,0l8 0c1,0 3,0 4,0 0,0 0,0 0,0 1,0 1,0 1,0 2,0 6,-1 8,-1 2,0 4,-1 6,-1 1,0 2,0 3,-1 0,0 1,0 1,0 1,0 1,0 2,0 1,-1 2,-1 2,-1l6 -2c1,0 2,0 3,0l4 -1c1,-1 2,-1 4,-2 0,0 1,0 1,0 1,0 1,-1 2,-1 0,0 1,0 1,0 0,0 1,0 1,0 1,-1 2,-1 3,-2l2 -1c0,0 3,-1 2,0 0,0 0,0 0,0 -1,1 -2,2 -3,2 0,0 -1,1 -2,1 -2,1 -1,1 -3,2 -1,0 -1,0 -2,0l-3 1c0,0 0,0 0,1 -1,0 -1,0 -1,0 -1,1 -3,1 -5,1 0,0 -1,1 -1,1 -2,0 -3,1 -4,1 -4,1 -7,2 -11,3 -1,0 -2,0 -2,0 -2,0 -3,0 -4,1 -1,0 -3,0 -4,0 -1,0 -1,0 -1,0 -1,0 -3,0 -4,0 -1,0 -1,0 -2,0 -1,0 -2,0 -2,0 -2,1 -4,1 -6,1l-2 -1c-1,0 -2,0 -3,0 0,0 -1,0 -1,0l-7 0c-1,0 0,0 -1,0 0,0 -1,0 -1,0 0,0 -1,0 -1,0 -1,0 -2,-1 -3,-1 -1,0 -5,-1 -6,-2 0,0 -1,0 -1,0 -1,-1 -5,-3 -6,-4l-1 -1c-1,0 -2,0 -2,-1 -1,0 -3,-2 -4,-3l-1 -1c-1,0 -1,-1 -2,-1 -1,-1 -2,-2 -2,-3 -1,0 -1,-1 -2,-2 0,0 0,0 -1,0 0,0 0,0 0,0 -1,-1 -1,-1 -1,-2 -1,0 -2,-1 -2,-1 0,-1 0,-2 -1,-2 0,0 -1,0 -1,0 -1,1 -2,1 -3,1 -1,1 -1,1 -2,2 -2,0 -3,1 -5,1 0,0 0,0 -1,0 0,0 0,0 0,0 -2,0 -1,1 -1,2 0,1 0,1 0,2 0,1 1,1 1,2 0,1 -1,0 -1,1 0,1 1,1 1,3 -3,0 -2,-4 -3,-6 -1,-1 -1,-2 -1,-4 0,0 1,-1 1,-1l0 -4c0,-1 0,-1 0,-2 0,-1 0,-2 0,-2 1,-2 1,-3 2,-5 1,-1 2,-2 3,-3l1 -3c0,-1 1,-1 1,-1 0,-1 0,-1 1,-1 0,-1 0,-1 0,-1 0,-1 1,-2 1,-2 1,-1 3,-3 3,-3 1,-1 1,-1 1,-1 1,-1 2,-2 2,-3 1,0 1,0 2,0 1,1 -1,2 1,3 1,1 2,1 3,0 1,0 1,0 1,0 1,0 2,-1 3,-1 1,0 1,-1 2,-1 1,0 2,-1 3,-1 -1,-1 -1,-1 1,-2 0,0 1,-1 1,-1l5 -3c2,-1 4,-2 5,-3 1,0 1,0 1,0l1 0c0,-1 0,-1 0,-1 1,-1 2,-1 3,-2l1 -1c0,0 0,0 1,0 0,-1 0,-1 1,-1l2 -2c0,0 0,0 1,0 1,-1 2,-2 4,-3 0,-1 0,-1 0,-1l4 -4c2,-1 3,-3 4,-4 0,0 0,0 0,-1 1,0 1,-1 1,-2 1,-1 1,-2 2,-2 1,-2 1,-4 0,-6l0 -2c-1,-1 -2,-2 -3,-3 0,0 -1,-2 -2,-2 -1,-1 -2,-1 -3,-2l-2 -1c-1,0 -1,0 -2,-1l-3 -1 -4 0c-2,-1 -4,-1 -5,-1 -2,0 -3,0 -5,0 0,0 0,0 0,0l-3 0c-3,0 -3,0 -7,1 0,0 -1,0 -2,0 -1,0 -2,0 -3,0 -1,1 -2,1 -3,1 -2,0 -3,0 -4,0l-6 1c0,0 -1,1 -1,1l-5 1c-3,1 -3,1 -5,2 0,0 -1,0 -1,0 0,0 0,0 -1,1 0,0 0,0 0,0 0,0 -1,1 -2,1 -1,0 -1,0 -2,0l-2 1c0,0 0,0 0,0 -1,1 -2,1 -3,1 0,0 -2,1 -3,2 0,0 -1,0 -1,0 -1,1 -1,2 -2,2 0,1 -1,0 -2,1 0,0 -1,1 -1,1 0,0 -1,1 -1,1 0,0 -1,0 -1,1 0,0 -1,0 -1,1l-5 3c0,1 1,1 1,2 0,1 0,1 0,1l-1 1c1,0 1,0 2,0 0,0 1,-1 1,-1 1,0 1,0 1,0 0,0 1,-1 1,-1 0,1 0,1 0,2 -2,1 -1,1 -2,1 0,0 -1,1 -1,1 0,0 1,0 1,0 0,0 0,0 1,0 0,1 -1,1 -1,2 -1,1 -1,1 -1,2 0,1 0,2 0,2 0,0 1,1 1,1 0,1 -1,1 -1,1 0,2 1,1 0,3 0,0 1,0 1,0 0,0 0,1 0,1 0,0 0,0 0,0 0,0 1,1 1,1 0,0 1,1 1,1 1,1 1,2 1,2 1,1 1,1 1,1 1,0 1,1 2,2 0,0 0,0 0,0 1,1 3,2 4,2 1,0 1,0 2,0 1,1 1,1 3,1 0,0 1,0 2,0 2,1 3,1 6,1 3,0 5,-1 7,-1l2 1c0,1 1,2 1,2 0,1 0,1 0,2 0,0 1,0 1,1 0,0 -1,1 -1,2l-5 7c-1,1 -1,1 -1,2 -1,1 -1,1 -1,1 -1,1 -1,1 -1,1l-1 1c0,0 0,0 0,0 0,0 0,0 0,0l0 0c0,0 0,0 0,0 0,0 0,0 0,0 -1,2 -2,3 -4,3 -1,1 -1,2 -1,3 -1,0 -1,0 -1,0l-1 2c-1,1 -1,1 -1,1 -1,1 -1,1 -1,2 0,1 0,1 0,2 -1,0 -1,0 -1,0l-1 3c0,0 0,1 0,1 -1,1 -1,1 -1,2 0,0 0,1 0,1 0,1 0,1 0,1 -1,2 0,5 1,7 0,1 0,2 1,3 0,0 0,0 0,0 0,0 0,0 1,1l0 1c2,2 1,1 4,3 1,1 1,1 1,1 1,1 2,1 2,1 1,0 1,1 1,1 0,0 0,0 0,0 -2,0 -2,0 -3,0l0 0c0,-1 0,-1 -1,-1l-2 -1c0,0 0,0 0,0 -1,-1 -2,-1 -3,-2 -1,-1 -2,-1 -2,-2l-1 -1c-1,-1 -1,-2 -2,-3 0,0 0,0 0,0 0,-1 -1,-1 -1,-2 -1,-1 -1,-3 -2,-5 0,-2 0,-2 0,-4 0,0 0,-1 -1,-1 0,0 -1,0 -2,0 -2,1 -4,2 -7,2 -1,0 -2,0 -4,-1 0,0 -3,-1 -3,-1 -1,0 -2,-2 -3,-2 0,-1 0,0 -1,0 0,-2 0,-3 0,-4 0,-1 1,-2 1,-2 0,-2 0,-2 1,-2 0,0 0,0 0,0 1,0 1,0 2,0 1,-1 1,-1 2,-2 0,-1 2,-2 2,-3 1,-1 0,-2 1,-2 0,-1 1,-2 1,-1 2,0 1,0 2,0 1,-1 2,-1 3,-2 1,-1 1,-1 2,-2 2,-1 5,-2 6,-3 1,0 1,0 1,-1 4,-1 5,-1 8,-1 0,0 0,0 1,-1 0,0 0,0 0,0 1,-1 0,-1 1,-2 1,0 1,0 1,-1 0,0 1,0 0,-1 0,0 -1,0 -1,0l-2 -1c-1,0 -1,0 -2,0 -1,-1 -2,-1 -3,-2 -1,0 -1,0 -1,0 -1,0 -1,0 -2,-1 -1,0 -1,0 -1,0l-3 -2 -2 -1c-1,-1 -3,-2 -4,-4 -2,0 -3,-1 -4,-2 -1,-1 -1,-2 -2,-2 -1,-1 -1,-2 -2,-2 0,-1 0,-1 0,-2 -1,-1 -1,-2 -1,-4 0,-1 0,-2 0,-3l1 -2c0,-1 1,-3 2,-4 1,-1 1,-2 2,-2 1,-2 1,-2 2,-3l2 -2c1,-1 2,-2 3,-2l6 -3c1,0 1,-1 2,-1 1,-1 1,-1 2,-2 1,0 2,0 3,0 2,-1 4,-2 6,-3 1,0 2,0 2,-1 1,0 1,0 2,0 1,0 1,0 2,-1 2,0 3,0 4,-1 1,0 2,0 3,0 3,-1 6,-2 9,-2 2,0 1,0 3,-1 2,0 3,0 5,-1 2,0 3,0 4,0 0,0 1,0 1,0l2 0c1,0 1,0 1,0 2,0 3,-1 5,-1zm-54 72c0,2 0,2 0,3 0,0 -1,0 -1,0l-2 6c-1,0 -1,0 -1,1 0,0 0,0 -1,0 0,0 0,0 -1,0 0,0 0,-1 -1,-1 -1,0 -1,-1 -2,-2 -2,-2 0,-2 1,-4l1 -1c1,-1 3,-2 3,-2 1,-1 1,-1 2,-1l2 0c0,0 0,0 0,0 1,1 1,0 1,1 0,0 0,0 -1,0zm11 -4c0,0 0,-1 0,-1 0,0 0,0 0,0 0,-1 0,-1 0,-1 1,0 1,0 2,-1 0,-1 0,-1 1,-2 0,0 1,-1 2,-1 0,1 0,1 0,2 0,1 -1,1 -2,1l-1 1c0,1 0,1 0,1 0,0 -1,0 -1,0 0,0 -1,1 -1,1zm27 8c-1,0 -3,-2 -4,-3 -2,-1 -3,-2 -5,-2 -1,0 -2,1 -4,2l-3 2c0,0 -1,1 -2,1 0,0 0,0 0,0 0,-1 0,-1 1,-1 0,0 0,-1 0,-1 1,-1 1,-1 1,-2 0,-1 0,0 1,-1 0,-1 1,-1 1,-2 0,0 0,0 0,0 1,-2 2,-2 2,-3 1,0 1,0 1,0 0,-1 2,-1 3,-2 0,-1 0,-2 1,-2 1,-1 2,-1 2,0 2,1 2,1 4,1 1,0 4,-1 6,-2l4 -2c1,0 2,-1 3,-1 1,0 1,0 2,0 0,-1 1,-1 1,-1 1,0 5,-1 7,-1 0,0 2,0 3,0 0,1 0,1 0,1 0,1 0,1 0,1 0,1 -1,1 -1,1 0,1 -1,1 -1,2 0,0 -1,0 -1,0 -1,1 -1,1 -2,2 0,0 0,0 0,1 -1,0 -1,0 -1,0 0,0 0,0 0,0 -1,1 -2,2 -3,2 -1,1 -1,1 -2,2 -1,0 -1,0 -1,0 0,0 0,1 -1,1 0,0 0,0 0,0l-8 5c-1,0 -3,2 -4,2z"/>
     <g>
      <path class="fil1" d="M790 151l-25 -1 25 1zm0 0c0,0 -1,-1 -1,-1 0,0 1,-1 1,-1l1 -2c0,0 0,0 0,0 0,0 0,1 1,1 0,1 0,2 -1,3 -1,0 -1,0 -1,0zm-7 -1l-4 -2 4 2zm0 0c0,-1 1,-1 1,-1 0,-2 2,-3 2,-3 0,2 -2,3 -3,4zm-27 0c0,-1 0,-2 1,-3 1,0 1,-1 1,-1 1,0 0,1 0,1 0,1 0,2 -1,2 0,0 -1,1 -1,1zm6 2c-1,0 -1,-1 0,-2 0,-1 2,-2 4,-3 0,0 0,0 0,0 0,0 0,1 -1,1 0,1 -1,2 -2,3 0,0 -1,1 -1,1zm3 -2c0,1 -1,2 -1,3 0,1 1,1 1,1 1,0 1,0 2,-1 0,0 0,0 0,0l1 -1c0,-1 1,-1 1,-1 0,-1 0,-1 1,-1 -1,1 -2,3 -1,4 0,0 1,1 1,0 1,0 2,-1 3,-1l1 -2c0,1 0,3 1,3 0,0 1,-2 1,-3 1,-1 2,-2 3,-3l-1 3c0,0 -1,2 -1,3 1,0 1,0 2,0 0,0 0,0 0,-1l1 0c0,0 1,-2 2,-2 0,1 0,3 1,3 1,0 2,0 2,-1 1,0 1,0 1,0 1,-1 1,-1 1,-2l1 0c0,1 1,3 2,3 1,0 2,-1 3,-2 0,0 1,0 1,-1 0,0 0,0 0,-1 0,0 0,1 -1,1 0,0 -1,1 -2,1 -1,0 0,0 2,-2 0,-1 1,-2 0,-3 0,-1 0,-2 0,-2 0,-1 0,-1 0,-1 -1,0 -1,0 -2,1 0,1 0,0 0,1 -1,1 -3,4 -4,5 -1,0 -1,1 -1,1 -1,0 -2,1 -2,0 -1,0 -1,-1 -1,-2 1,0 1,0 1,0 1,0 1,0 1,-1 1,0 3,-2 3,-3 -1,-2 -3,-1 -4,0 0,0 0,0 0,1l-1 0c-1,2 -1,3 -1,3 0,0 -1,0 -1,0l0 1c0,0 -1,0 -1,0 0,1 0,1 0,1 0,0 -1,0 -1,0 0,0 1,0 0,0 0,0 0,0 0,0 0,0 0,-1 0,-1 0,-1 1,-2 1,-3 1,-1 2,-1 1,-2 -1,-1 -1,0 -2,0 -1,1 -2,2 -2,3 0,0 -2,2 -2,2l0 -1c0,-1 1,-1 1,-1l1 -2c1,-1 1,-1 1,-1l3 -6c0,0 1,-2 1,-2 0,0 -1,0 -1,0 -1,1 -5,7 -6,9 -1,1 -1,2 -1,3 0,0 0,0 0,0 -1,1 -2,2 -2,2 -1,0 -1,0 -1,-1 0,-1 0,-2 0,-2 1,-1 1,-2 1,-3 1,0 1,1 2,1 0,-1 1,-3 1,-3 0,0 0,0 -1,0 0,-1 1,-1 1,-1l0 -1c0,0 0,0 0,0 0,-1 -1,0 -1,0 -1,1 -1,1 -1,2 -1,0 -2,0 -3,0 0,1 -1,2 -1,3 0,0 1,0 1,-1 0,0 1,0 1,0 0,1 0,1 0,1 0,0 0,0 0,0 -1,1 -1,2 -2,3 -1,0 0,0 -1,1 0,0 0,0 -1,0 0,1 -1,1 -1,0 0,-1 0,-1 0,-2 1,0 1,-1 1,-1 0,-1 0,-1 0,-2 0,0 0,0 0,0 1,0 0,-1 0,-1 -1,-1 -2,0 -2,0 -1,1 -2,1 -2,2 0,0 0,0 -1,0 0,0 -2,2 -2,3 0,0 0,0 0,1 -1,0 -1,1 -2,1 -1,0 -2,1 -2,0 0,-1 0,-1 0,-2 0,0 1,0 1,0 1,-1 1,-1 2,-1 0,-1 0,-1 0,-1 2,-2 1,-4 -2,-2 0,0 0,0 0,0 -1,0 -1,0 -1,0 0,1 -1,2 -1,2 0,0 -1,1 -1,1 0,0 0,0 0,0 0,1 0,1 0,2 -1,0 -1,0 -2,1 0,0 -1,0 -1,-1 0,0 1,-1 1,-2 0,0 0,0 0,0 1,-1 1,-1 1,-2 1,0 0,-1 0,-1 0,-1 -1,-1 -1,-1 0,1 -1,1 -2,1 0,0 1,-1 0,-1 0,-1 -1,1 -1,1 -1,1 -1,3 0,3 0,0 -1,1 -1,1 0,0 0,1 0,1 0,0 0,0 0,-1 1,0 2,-1 2,-2 0,0 0,0 1,0 0,0 0,0 1,0 -1,1 -3,3 -2,5 1,1 2,1 2,0 1,0 2,-2 2,-2 0,1 0,2 1,3 0,0 1,0 2,0 0,0 1,0 1,-1l1 -1c0,0 1,-1 1,-1 0,1 1,3 1,3 1,0 1,-1 2,-1l1 -2c0,0 1,0 1,-1z"/>
     </g>
     <path class="fil1" d="M665 150c0,0 0,0 0,0 0,0 0,0 0,0zm-3 2c-1,0 -1,-1 -1,-1 0,-2 4,-4 5,-4 0,0 -1,2 -2,3 0,0 -2,2 -2,2zm8 -4c1,-1 1,-2 2,-3 0,-1 3,-5 4,-6 0,1 -1,2 -1,3 -1,0 -1,1 -1,1l-1 2c-1,1 -1,1 -1,1 0,1 -1,2 -2,2zm-3 4c-1,0 -1,-1 -1,-2 0,0 1,-2 1,-2 0,-1 0,-2 0,-2 0,0 1,0 1,0 0,-1 -1,-1 -1,-1 -1,0 -3,1 -4,1 -1,1 -1,2 -2,2 -1,1 -1,2 -1,3 0,1 1,3 1,3 1,0 1,0 1,-1l2 -1c0,0 1,-1 1,-2 0,1 0,1 0,1 0,1 -1,3 0,3 1,0 2,-1 2,-1 0,0 1,-1 1,-1 0,0 0,-1 1,-1 0,1 0,3 1,3 1,0 1,0 2,-1 0,0 1,-1 1,-1 1,0 1,0 2,-1 0,0 0,0 0,0 1,0 1,-1 2,-1 0,-1 0,-1 0,-1 0,0 0,0 0,0 0,0 0,-1 0,-1 0,0 2,0 2,0l0 1c-1,0 -1,1 -1,1 0,1 -1,2 -1,2 0,1 1,2 2,2 0,0 1,-2 2,-2 0,0 0,-1 1,-1 0,1 0,3 1,3l0 0c1,0 2,-1 3,-2 0,0 0,-1 0,-1 0,1 1,3 2,3 2,0 2,-1 3,-1l2 -2c0,0 0,-1 0,-1 -1,1 -3,2 -4,2 0,0 -1,0 -1,0 -1,-1 0,-2 0,-2 0,-1 1,-1 1,-1 0,-1 0,-1 1,-1 0,0 0,0 0,0 0,0 0,1 0,1 1,0 3,-3 2,-4 -1,-1 -3,1 -3,2l-2 1c0,1 0,1 -1,2 0,0 0,0 0,1 -1,0 -1,1 -2,1 -1,0 -2,-1 0,-3 0,-1 1,-1 1,-2 1,-1 1,-2 0,-2 -1,0 -1,1 -2,2 0,0 -1,2 -1,2 0,1 0,1 -1,1 0,1 0,1 -1,1 0,1 -1,1 -1,0 0,-1 1,-2 2,-3 0,0 0,-1 0,-1 0,-1 0,-2 0,-2 -2,0 -2,1 -3,1 0,0 0,-1 0,-1 -1,0 -3,3 -2,4 0,0 -1,2 -1,2 -1,0 -1,0 -1,-1 0,0 0,-1 0,-1 1,-1 1,-4 0,-2 -1,1 -2,2 -2,3 0,1 1,1 0,1 0,1 -1,1 -1,1 -1,0 -1,-2 -1,-2 0,0 1,-1 1,-2 1,-1 3,-3 4,-5 1,-1 2,-3 2,-5 0,-2 -3,2 -4,3l-1 2c0,0 0,0 -1,0 -1,2 -2,4 -2,6 0,2 0,1 -1,2 0,0 -1,1 -1,1z"/>
     <path class="fil1" d="M833 136c0,0 1,-1 1,-1 0,0 0,0 0,0 1,1 0,1 -1,1zm-13 0c0,0 -1,0 -1,-1 0,-1 1,-1 1,-2 1,0 2,-1 3,0 0,0 0,0 0,1 -1,1 -1,1 -2,2 0,0 -1,0 -1,0zm4 -4c0,0 -1,0 -2,0l0 0c-2,0 -4,2 -4,3 -1,0 -1,0 -1,0 0,0 0,1 -1,1 0,0 -1,1 -2,1 0,0 0,0 -1,0 0,0 0,-1 0,-2 1,0 1,0 2,0 1,0 1,-1 2,-1 0,0 1,-1 1,-2 0,-1 0,-1 0,-1 0,0 1,0 1,0l5 0c0,0 1,0 1,0 0,0 -1,1 -1,1zm11 -1c-1,0 -2,0 -3,1 -1,0 -1,1 -2,2 0,0 0,0 0,0 -1,1 -1,1 -2,2 0,1 -1,1 -1,1 0,0 0,-1 0,-1l1 -2c0,0 1,0 1,0l2 -4c0,0 0,0 1,0l1 0c0,0 0,0 1,0l2 0c0,0 0,1 -1,1zm6 -2c-1,0 -2,0 -3,0 0,0 0,-1 0,-1 0,0 0,-1 1,-1 0,0 0,-1 0,-1 1,0 3,0 3,1 0,1 0,1 -1,2zm-5 0l0 0c0,0 -1,0 -1,0 -1,0 -1,0 -1,0 0,0 -1,0 -1,0l-17 1c-1,0 -2,1 -2,0l-3 1c-1,0 -1,0 -1,0 0,1 0,0 1,0 0,0 0,0 0,0 1,0 1,0 1,0 1,0 1,0 2,0 0,0 0,0 0,1 1,0 0,-1 2,-1 0,0 1,0 1,0 0,1 -1,2 -2,3 0,0 -1,0 -1,0 -2,1 -2,0 -3,0 0,0 -1,1 -1,2 0,0 0,-1 1,0 0,0 0,0 1,1 0,2 1,2 2,1 1,-1 2,-1 3,-2l1 -1c-1,1 -1,1 0,1 0,1 1,1 2,1 1,0 1,0 1,-1 0,1 0,1 0,1 0,1 0,1 1,1 1,0 2,-1 2,-2 1,0 1,0 1,0 0,0 1,-2 1,-2 0,0 0,0 0,0 0,0 0,0 -1,0l0 1c-1,1 -2,2 -2,2 -1,0 0,-1 0,-2l3 -4c0,0 0,0 1,-1l2 0c0,1 -2,3 -2,3l-1 3c-1,1 -1,3 1,1l1 0c1,-1 1,-1 1,-1 0,0 1,-1 1,-1 0,1 1,2 2,2 1,1 1,1 1,1 1,0 1,0 2,0 0,0 1,0 1,0 -1,0 -1,0 -1,0 -1,0 -1,0 -2,-1 2,0 3,-1 3,-2 0,-1 -2,-1 -2,-1 -1,0 -1,1 -2,1 0,1 0,1 0,1 0,0 -1,0 -1,-1 0,-1 1,-1 1,-2 1,-1 1,-1 3,-1 0,0 0,0 0,0l2 0c0,-1 0,-1 0,-1 0,0 1,-1 1,-1 0,0 1,0 1,0 0,0 1,0 1,0 0,0 0,0 1,0 0,0 -1,0 -1,0l-3 5c-1,1 0,4 3,0 1,0 2,-2 2,-2 0,0 0,0 0,0 -1,1 -1,1 -1,1 -1,1 -2,2 -3,2 0,0 0,0 1,-1 0,0 0,0 0,0l1 -2c0,0 0,0 1,-1 0,0 1,-2 1,-2l4 -1c1,0 1,0 1,0 0,-1 -1,0 -2,0l-1 0c0,0 -1,0 -1,0 0,0 0,-1 0,-1 1,-1 0,-3 -2,-3 -2,0 -3,1 -4,2 0,1 -1,1 -1,2z"/>
     <path class="fil1" d="M721 150c0,0 0,0 0,0l0 0zm-3 2c0,0 -1,-2 1,-3 1,-1 2,-2 4,-2 0,0 -1,1 -1,1 -1,1 -1,1 -1,2 -1,0 -1,1 -1,1 -1,0 -1,1 -2,1zm-9 -1c0,1 0,3 1,3 0,0 0,-1 0,-1l1 -2c0,0 1,0 1,0 1,-1 1,-2 2,-3 0,0 0,0 0,1 -1,1 -2,2 -2,4 0,1 1,1 1,1 1,0 2,-2 3,-2 0,-1 0,-1 1,-1 0,1 0,3 1,3 0,0 1,0 1,-1 0,0 1,-1 2,-2 0,0 0,0 0,0 0,0 0,0 0,-1 0,1 -1,4 1,4 1,0 2,-1 2,-2 1,0 1,-1 1,-1 0,0 1,-1 1,-1 0,0 0,1 0,1 0,1 -1,2 0,3 0,0 0,0 0,0 1,1 3,-1 4,-2 0,-1 0,-1 0,-2 0,0 -1,2 -2,2 -1,0 -1,-1 -1,-1 0,-1 1,-3 1,-3 0,-1 1,-1 1,-2 0,0 1,1 1,1 1,-1 2,-3 2,-3 -1,0 -1,0 -1,0 0,-1 1,-1 1,-2 0,0 -1,0 -1,0 -1,0 -1,1 -2,2 0,0 -1,0 -1,0 -1,0 -2,1 -2,1 0,1 0,1 0,2 0,0 0,-1 2,-1 0,1 -1,2 -1,2 -1,1 -1,1 -2,2 0,0 0,0 0,1 0,0 -1,0 -1,0 0,0 0,1 -1,1 -1,0 -1,-1 -1,-1 0,-1 2,-3 2,-3 0,-1 -1,-2 -1,-2 1,0 1,0 1,0 0,-1 0,-1 -1,-1 -1,0 -2,0 -3,1 0,0 -1,1 -2,1 -2,3 -1,3 -2,3 0,1 -2,3 -2,1 0,-1 1,-2 1,-2 0,0 0,-1 1,-1 0,-1 0,-1 0,-2 -1,-1 -2,0 -2,1 -1,0 -2,2 -3,2 0,1 0,1 0,1 0,0 -1,1 -1,1 0,-2 0,-1 2,-4l1 -1c0,-1 4,-7 4,-8 0,0 0,0 -1,0 0,0 -1,1 -1,1 0,0 0,0 0,0l-2 2c0,1 0,1 0,1 -1,2 -2,4 -3,5 -1,1 -1,3 -1,4z"/>
     <path class="fil1" d="M741 152c0,0 -1,0 -1,-1 -2,-1 0,-3 1,-4 0,0 1,0 1,0 1,1 3,1 3,2l0 0c0,1 -2,3 -4,3zm-4 -9c0,0 0,0 0,0 1,0 3,0 4,-1 -1,0 -1,0 -1,0 0,-1 1,-1 1,-1 1,0 1,0 2,0 1,-1 5,-2 5,1 0,2 -3,2 -4,2 -1,0 -1,1 -1,1 0,-1 2,-3 2,-3 0,-1 -2,0 -2,0 -1,1 -1,1 -2,2 0,1 0,1 -1,1 -1,0 -2,0 -2,1 0,0 0,1 0,1 0,0 1,0 1,0 0,0 0,0 0,1 -1,1 -2,2 -2,4 0,1 1,1 1,2 2,1 5,0 7,-1 0,0 0,-1 1,-1 0,0 0,0 0,-1 1,0 1,0 1,-1 0,0 0,-1 0,-1 -1,-1 -2,-2 -4,-2 0,0 -1,-1 -2,-1 1,0 1,0 1,0 1,0 4,-1 5,-2 0,0 1,0 1,0l1 -1c2,-2 1,-5 -3,-5 -1,0 -2,0 -4,0 0,0 -3,1 -3,1 -1,1 -2,3 -2,4z"/>
     <path class="fil1" d="M649 145c0,0 1,0 1,0 1,-1 1,-1 2,-1 0,0 0,0 0,0 0,0 0,0 0,-1 0,0 -1,0 -2,0 2,-1 6,-1 7,-2 1,0 3,0 3,1 0,1 -1,3 -2,3l-1 2c0,0 0,1 0,1 -3,0 -2,0 -4,0 -1,1 -1,1 -1,1 -1,0 -1,1 -1,1 0,1 1,1 1,1 1,0 2,-1 3,-1 0,1 0,1 0,1l-2 3c0,0 -2,0 -3,2 0,0 -1,1 -1,1 0,1 0,1 1,1 1,0 3,-3 4,-3l0 -1c0,0 0,0 1,-1l2 -3c0,0 0,0 0,0 1,0 1,0 1,0 1,0 2,-2 2,-2l-2 0 1 -2c0,0 0,-1 1,-1 0,-1 2,-4 2,-5l0 0c0,-2 -2,-2 -3,-2 -1,0 -4,1 -6,1 -1,0 -2,1 -3,1 0,1 0,1 0,1 -1,1 -1,2 -1,2 0,1 0,1 0,1 0,1 0,1 0,1z"/>
     <path class="fil1" d="M698 143c0,1 1,1 2,1 0,0 1,0 1,0 0,-1 -1,-1 -1,-1 0,0 0,0 0,0 1,-1 5,-2 7,-2l1 0c0,0 1,0 1,0 0,0 0,1 0,1l-2 2c-1,2 -2,4 -3,6l0 1c-1,1 -1,2 -1,3 0,1 1,2 2,0 0,-1 1,-2 1,-2 0,0 0,0 -1,0 0,-1 1,-1 1,-1l3 -6c0,-1 0,-1 0,-2 1,0 2,-1 2,-2 0,-1 -1,-2 -1,-3 -1,-1 -4,-1 -5,0 -2,0 -5,0 -6,2 0,1 -1,2 -1,3z"/>
     <path class="fil1" d="M847 126c1,2 1,3 1,5 0,0 0,1 -1,1l-1 3c-1,1 -2,1 -3,2l-2 1c0,1 0,1 0,1 1,0 3,-2 3,-2 1,0 1,-1 1,-1l2 -2c1,-1 3,-4 3,-6 0,0 0,-1 -1,-1 0,-1 0,-1 0,-1 0,0 -1,0 -1,0 0,0 0,0 -1,0z"/>
     <path class="fil1" d="M803 138c0,2 0,3 0,3 1,0 1,0 1,0 0,0 0,0 1,-1 0,0 -1,0 -1,-1 0,-1 0,-2 0,-3 1,-2 4,-5 6,-7 1,-1 1,0 1,-1 0,0 0,0 -1,0 -1,1 -1,1 -2,2 0,0 0,0 -1,0l-1 2c-1,1 -2,2 -3,3l0 0c0,1 0,2 0,3z"/>
     <path class="fil1" d="M685 144c0,0 1,1 1,0 2,0 1,-2 1,-2 -1,0 -1,0 -1,1 -1,0 -1,0 -1,1z"/>
    </g>
    <path class="fil2" d="M578 85l0 12 3 0c2,0 4,-1 5,-1 1,-1 1,-3 1,-5 0,-2 0,-3 -1,-4 -1,-1 -3,-2 -5,-2l-3 0zm0 -12l0 11 3 0c2,0 3,0 4,-1 1,-1 2,-3 2,-4 0,-2 -1,-4 -2,-5 0,0 -2,-1 -4,-1l-3 0zm-7 -1c0,0 1,0 2,0 1,0 1,0 2,0 2,0 3,0 5,0 1,0 2,0 2,0 3,0 5,0 7,1 1,1 2,3 2,5 0,2 0,4 -2,5 -1,1 -2,1 -5,2l0 0c3,0 5,1 6,2 2,1 2,2 2,5 0,2 0,4 -2,5 -2,1 -4,1 -8,1 -1,0 -2,0 -4,0 -1,0 -2,0 -2,0 -1,0 -2,0 -3,0 -1,0 -2,0 -2,0l0 -1c1,0 2,0 2,-1 0,0 1,-1 1,-2l0 -18c0,-1 -1,-2 -1,-2 0,-1 -1,-1 -2,-1l0 -1zm23 8c1,1 1,1 2,1 1,0 2,0 2,0 1,0 2,0 2,0 1,0 2,0 3,-1l0 2c-1,0 -1,0 -2,0 0,0 0,0 0,1 0,0 0,0 0,0 0,0 0,1 0,1l4 9c1,-4 2,-6 3,-8 0,-1 0,-2 0,-2 0,-1 0,-1 0,-1 0,0 -1,0 -2,0l0 -2c1,1 1,1 2,1 0,0 1,0 1,0 1,0 1,0 2,0 0,0 1,0 1,-1l0 2c0,0 -1,0 -1,0 -1,0 -1,1 -1,2l-6 16c-1,2 -2,4 -3,5 -1,1 -2,2 -3,2 -1,0 -2,0 -2,-1 -1,0 -1,-1 -1,-1 0,-1 0,-1 1,-2 0,0 1,0 1,0 1,0 1,0 2,1 0,0 1,0 1,0 0,0 1,0 1,-1 1,-1 1,-3 2,-5l-6 -14c0,0 0,0 0,0 -1,-1 -2,-2 -3,-2l0 -2z"/>
    <path class="fil2" d="M174 67l0 -3 2 0c0,2 0,3 0,4 0,1 0,2 0,3 0,1 0,2 0,3 0,1 0,2 0,4l-2 0c0,-4 -2,-7 -4,-9 -2,-2 -4,-3 -8,-3 -2,0 -4,0 -6,2 -2,1 -2,3 -2,6 0,2 0,3 1,5 2,1 4,2 8,4 6,2 10,4 12,6 2,2 3,5 3,8 0,4 -1,8 -4,10 -3,3 -7,4 -12,4 -3,0 -5,-1 -7,-1 -2,-1 -4,-2 -6,-4l-1 3 -2 0c0,-1 0,-2 0,-3 0,-2 0,-4 0,-5 0,0 0,-2 0,-4 0,-1 0,-2 0,-3l2 0c0,4 2,8 4,10 2,3 5,4 9,4 3,0 5,0 7,-2 1,-1 2,-3 2,-6 0,-2 0,-4 -2,-5 -1,-1 -3,-2 -6,-4 -1,0 -1,0 -2,0 -4,-2 -7,-3 -9,-5 -2,-1 -3,-2 -4,-4 -1,-1 -1,-3 -1,-5 0,-5 1,-8 4,-10 3,-3 7,-4 11,-4 3,0 5,0 7,1 2,1 4,2 6,3zm11 -3c1,0 2,0 3,0 3,0 6,0 7,0 1,0 4,0 7,0 1,0 2,0 3,0l0 2c-3,0 -4,0 -5,1 -1,1 -1,2 -1,5l0 30c0,3 0,4 1,5 1,0 2,1 5,1l0 2c-3,0 -5,0 -7,0 -1,0 -2,0 -3,0 -1,0 -2,0 -3,0 -2,0 -4,0 -7,0l0 -2c3,0 4,-1 5,-1 0,-1 1,-2 1,-5l0 -30c0,-3 -1,-4 -1,-5 -1,-1 -2,-1 -5,-1l0 -2zm26 0c2,0 4,0 5,0 2,0 3,0 4,0 2,0 5,0 9,0 1,0 1,0 2,0l0 2 -1 0c-2,0 -4,0 -5,1 0,1 -1,2 -1,5l0 35 11 0c4,0 7,0 8,-2 2,-2 3,-5 3,-10l3 0 -2 15c-4,0 -7,0 -11,0 -3,0 -6,0 -8,0 -3,0 -9,0 -17,0l0 0 0 -2c2,0 3,-1 4,-1 1,-1 1,-2 1,-5l0 -30c0,-3 0,-4 -1,-5 -1,0 -2,-1 -4,-1l0 -2zm41 0c1,0 2,0 3,0 3,0 6,0 7,0 1,0 4,0 7,0 1,0 2,0 2,0l0 2c-2,0 -3,1 -4,1 -1,1 -1,2 -1,5l0 16c5,-5 8,-9 12,-13 3,-4 4,-6 4,-7 0,-1 0,-1 0,-2 -1,0 -2,0 -4,0l0 -2c2,0 3,0 5,0 1,0 2,0 3,0 0,0 1,0 3,0 1,0 2,0 4,0l0 2c-2,0 -3,0 -3,0 -1,1 -2,1 -3,2 0,0 -2,2 -5,6 -3,3 -5,6 -7,9l15 21c1,1 2,2 3,3 1,0 2,1 3,1l0 0 0 2c-2,0 -4,0 -5,0 -1,0 -3,0 -3,0 -1,0 -2,0 -3,0 -2,0 -4,0 -7,0l0 -2c2,0 2,0 3,-1 0,0 1,0 1,-1 0,0 0,0 -1,0 0,-1 0,-1 0,-2l-12 -16 -3 3 0 11c0,3 0,4 1,5 1,0 2,1 4,1l0 2c-2,0 -4,0 -6,0 -1,0 -2,0 -3,0 -1,0 -3,0 -4,0 -2,0 -4,0 -6,0l0 -2c3,0 4,-1 5,-1 0,-1 1,-2 1,-5l0 -30c0,-3 -1,-4 -1,-5 -1,0 -2,-1 -5,-1l0 -2zm65 0c1,0 2,0 3,0 3,0 6,0 7,0 1,0 3,0 7,0 1,0 2,0 2,0l0 2c-2,0 -3,1 -4,1 -1,1 -1,2 -1,5l0 16c5,-5 8,-9 12,-13 3,-4 4,-6 4,-7 0,-1 0,-1 0,-2 -1,0 -2,0 -4,0l0 -2c2,0 3,0 5,0 1,0 2,0 2,0 1,0 2,0 3,0 2,0 3,0 5,0l0 2c-2,0 -3,0 -4,0 0,1 -1,1 -2,2 0,0 -2,2 -5,6 -3,3 -5,6 -8,9l16 21c1,1 2,2 3,3 1,0 2,1 3,1l0 0 0 2c-2,0 -4,0 -5,0 -1,0 -3,0 -4,0 0,0 -1,0 -3,0 -1,0 -3,0 -6,0l0 -2c1,0 2,0 3,-1 0,0 1,0 1,-1 0,0 -1,0 -1,0 0,-1 0,-1 0,-2l-12 -16 -3 3 0 11c0,3 0,4 1,5 1,0 2,1 4,1l0 2c-2,0 -4,0 -6,0 -1,0 -2,0 -3,0 -1,0 -3,0 -5,0 -1,0 -3,0 -5,0l0 -2c3,0 4,-1 5,-1 0,-1 1,-2 1,-5l0 -30c0,-3 -1,-4 -1,-5 -1,0 -2,-1 -5,-1l0 -2zm46 0c1,0 2,0 3,0 3,0 5,0 6,0 2,0 4,0 8,0 1,0 2,0 2,0l0 2c-2,0 -4,1 -4,1 -1,1 -1,2 -1,5l0 12 20 0 0 -12c0,-3 0,-4 0,-5 -1,0 -3,-1 -5,-1l0 -2c1,0 2,0 3,0 3,0 5,0 6,0 2,0 4,0 8,0 1,0 2,0 2,0l0 2c-2,0 -4,1 -4,1 -1,1 -1,2 -1,5l0 30c0,3 0,4 1,5 0,0 2,1 4,1l0 2c-2,0 -3,0 -5,0 -1,0 -3,0 -4,0 -1,0 -2,0 -4,0 -1,0 -3,0 -6,0l0 -2c2,0 4,-1 5,-1 0,-1 0,-2 0,-5l0 -15 -20 0 0 15c0,3 0,4 1,5 0,0 2,1 4,1l0 2c-2,0 -4,0 -6,0 -1,0 -2,0 -3,0 -1,0 -3,0 -5,0 -1,0 -3,0 -5,0l0 -2c2,0 4,-1 5,-1 0,-1 1,-2 1,-5l0 -30c0,-3 -1,-4 -1,-5 -1,0 -3,-1 -5,-1l0 -2zm69 9l-6 18 12 0 -6 -18zm1 -10l4 0 15 41c0,2 1,3 2,3 0,1 1,1 3,1l0 2c-3,0 -5,0 -6,0 -1,0 -2,0 -3,0 -1,0 -2,0 -3,0 -2,0 -4,0 -7,0l0 -2c2,0 3,-1 4,-1 0,0 1,-1 1,-2 0,0 0,0 0,-1 0,0 0,0 0,0l-4 -11 -14 0 -2 8c0,0 0,0 0,0 -1,2 -1,4 -1,4 0,1 0,2 0,2 1,0 2,1 3,1l0 2c-1,0 -2,0 -3,0 -1,0 -2,0 -3,0 -1,0 -1,0 -2,0 -1,0 -3,0 -4,0l0 -2c2,0 3,0 3,-1 1,0 2,-1 2,-3l15 -41zm40 3l0 42 5 0c3,0 5,0 6,-1 2,0 3,-1 4,-1 3,-2 5,-4 6,-7 1,-3 2,-7 2,-12 0,-8 -2,-13 -5,-16 -2,-3 -7,-5 -14,-5l-4 0zm-14 -2c1,0 2,0 4,0 1,0 2,0 4,0 2,0 4,0 6,0 3,0 5,0 7,0 8,0 14,2 18,6 5,4 7,10 7,17 0,8 -2,13 -6,17 -5,4 -11,6 -19,6 -1,0 -3,0 -6,0 -2,0 -4,0 -6,0 -1,0 -3,0 -4,0 -2,0 -3,0 -5,0l0 -2c3,0 4,-1 5,-1 1,-1 1,-2 1,-5l0 -30c0,-3 0,-4 -1,-5 -1,0 -2,-1 -5,-1l0 -2zm52 0c0,0 1,0 3,0 3,0 5,0 6,0 1,0 4,0 8,0 1,0 2,0 2,0l0 2c-2,0 -4,0 -5,1 0,1 -1,2 -1,5l0 30c0,3 1,4 1,5 1,0 3,1 5,1l0 2c-3,0 -5,0 -6,0 -2,0 -3,0 -3,0 -1,0 -3,0 -4,0 -2,0 -4,0 -6,0l0 -2c2,0 4,-1 4,-1 1,-1 1,-2 1,-5l0 -30c0,-3 0,-4 -1,-5 0,-1 -2,-1 -4,-1l0 -2z"/>
   </g>
  </g>
 </g>
</svg>
