<?xml version="1.0" encoding="UTF-8"?>
<!DOCTYPE svg PUBLIC "-//W3C//DTD SVG 1.1//EN" "http://www.w3.org/Graphics/SVG/1.1/DTD/svg11.dtd">
<!-- Creator: CorelDRAW X7 -->
<svg xmlns="http://www.w3.org/2000/svg" xml:space="preserve" width="1.00921in" height="0.173138in" version="1.1" style="shape-rendering:geometricPrecision; text-rendering:geometricPrecision; image-rendering:optimizeQuality; fill-rule:evenodd; clip-rule:evenodd"
viewBox="0 0 1009 173"
 xmlns:xlink="http://www.w3.org/1999/xlink">
 <defs>
  <style type="text/css">
   <![CDATA[
    .fil1 {fill:black}
    .fil0 {fill:#CBAE3B}
    .fil2 {fill:black;fill-rule:nonzero}
   ]]>
  </style>
 </defs>
 <g id="Layer_x0020_1">
  <metadata id="CorelCorpID_0Corel-Layer"/>
  <g id="_1392657478928">
   <rect class="fil0" width="1009" height="173" rx="87" ry="87"/>
   <path class="fil1" d="M764 101l1 -1c1,-1 0,-1 1,-2 0,-1 0,0 1,-1 0,-1 1,-2 1,-2 1,0 0,0 1,-1 0,1 2,2 2,2 1,1 2,2 2,2 0,0 0,0 0,0 0,0 -1,0 -1,1 0,0 0,0 0,0 -1,0 -1,0 -1,0 -1,1 -1,0 -2,1 -1,0 -3,1 -5,1zm78 -15c0,5 0,8 2,12 0,1 1,2 1,4 1,1 2,4 3,5 1,1 2,2 2,3 1,1 1,1 2,2l0 1c1,0 2,1 2,2 0,0 1,0 1,0 0,0 0,0 -1,-1l-1 -3c-1,-1 -2,-3 -2,-4 0,0 0,-1 0,-1 0,0 0,0 -1,0 0,-1 0,-1 0,-2 -1,-5 -1,-8 -1,-13 0,-4 0,-9 2,-13 1,-3 2,-6 5,-9 0,0 0,0 0,0l1 -1c1,-1 1,-2 0,-3 -1,-2 -3,-2 -5,-1 -1,0 -2,1 -3,2 0,1 -1,1 -1,2 0,0 0,0 -1,1 0,0 0,0 0,0 -1,2 -2,3 -2,4 -2,4 -3,9 -3,13zm-135 22c0,-1 0,-1 0,-2 0,-1 0,-1 1,-2 1,-2 2,-2 3,-4 0,0 1,0 1,0 0,-1 0,-1 0,-1l2 -1c2,-1 2,-1 4,-2l1 -1c1,0 1,0 1,-1 1,0 1,0 2,0 0,0 1,-1 1,-1 1,-1 1,-1 2,-1l3 -1c1,0 1,0 2,0 0,0 1,0 1,0 0,0 0,1 0,2 0,0 -1,0 -1,0 -1,2 -3,3 -5,5 0,0 0,0 0,0l-3 2c0,0 -1,0 -1,1 -1,0 -1,1 -2,1l-1 1c-1,0 -2,1 -2,1 -2,1 -4,2 -5,3 -1,0 -3,1 -4,1zm27 -22c0,0 0,0 -1,-1 0,0 -2,0 -3,0 -2,0 -4,1 -5,1 -1,0 -2,1 -2,1 -1,0 -1,1 -1,1 -1,0 -1,0 -1,1 -2,0 -4,1 -6,2 -2,2 -4,3 -5,4l-2 1c0,0 0,1 0,1 0,0 -1,1 -1,1l-1 1c-1,0 -1,0 -1,0 0,1 -1,1 -1,2 -1,0 -1,0 -1,0 -1,1 -2,3 -2,4 -1,1 -1,2 -1,3 0,1 1,2 1,2 1,1 6,3 8,3 0,0 1,0 2,0 2,-1 4,-2 6,-3 1,0 3,-2 4,-2 1,-1 1,0 2,-1 0,-1 0,-1 1,-1 1,-1 1,-1 2,-2 0,0 0,0 0,0 1,-1 2,-2 4,-3 0,1 1,4 1,5 1,0 2,0 3,1 1,0 1,0 2,0 0,1 1,1 1,1 1,0 1,0 1,-1 1,0 1,0 1,0 0,0 0,0 0,-1 0,0 0,0 1,0 0,0 1,-1 1,-2 0,0 0,-1 1,-2 1,-1 1,-2 2,-3 1,0 2,-1 2,-1 0,1 0,1 0,2 0,0 0,0 0,1 0,0 0,0 0,1 0,0 1,1 1,1 0,1 0,1 0,1 0,0 0,0 1,0 0,0 1,1 1,1 0,0 1,0 1,0 0,-1 0,-2 0,-3 0,0 0,0 0,0 0,-1 0,-1 0,-1 0,-2 -1,-3 0,-5 1,0 1,0 1,-1 0,-1 0,-1 0,-1l1 0c0,0 0,-1 0,-1 0,0 1,-1 1,-1 0,0 0,-1 0,-1l1 0c0,-1 0,-1 0,-1 0,0 0,0 1,0 0,0 0,0 0,0 0,-2 -2,-2 -3,-2 0,-1 0,-2 0,-3l0 0c0,0 -1,0 -2,0 -1,0 -4,2 -5,3 -1,0 -2,1 -2,1 -1,1 -2,3 -3,2 -1,0 0,0 0,-1 0,0 0,0 0,0l2 -3c0,0 0,0 0,-1 1,0 1,-1 1,-2 1,0 1,-1 1,-2 1,-1 1,-1 1,-2 -1,0 -1,0 -1,0l-2 -2c0,0 0,0 0,0 0,-1 -1,-1 -1,-2 -2,-1 -2,1 -3,2 0,1 -1,3 -2,3 0,0 0,0 0,0 -1,1 0,1 -1,2 0,1 -1,2 -1,3zm97 -66l0 0c1,0 2,1 3,1 1,0 2,0 3,0l2 0c0,0 0,0 0,0 1,0 2,0 3,0 1,0 2,1 3,1 1,1 2,1 3,1 2,1 3,1 4,2 1,1 2,1 2,2 1,0 1,0 1,0 1,1 2,2 3,3 1,2 2,6 2,8 0,0 -2,4 -2,4 0,1 0,1 0,1 0,0 -1,0 -1,0 0,1 -1,2 -1,2 0,1 -1,1 -1,1 0,0 0,1 0,1 -1,0 -1,1 -2,1 0,0 0,1 -1,1l-1 2c0,0 0,0 -1,0 0,1 -6,5 -7,6 -1,0 -1,1 -1,1 -1,0 -1,0 -1,0 -2,2 -3,3 -5,4 0,0 -1,0 -1,0l-4 3c-1,1 -2,1 -2,2 -1,0 -2,0 -3,1 0,0 0,0 0,0 -1,0 -1,0 -1,0 -1,1 -1,1 -1,1 -1,0 -1,1 -1,1 0,0 0,0 0,0 0,0 1,0 1,0 0,0 0,0 0,0 2,-1 3,-1 5,-1 0,0 3,-1 4,-1 1,0 1,0 2,0 0,0 0,0 0,0 1,0 1,0 1,0 2,1 2,1 4,1 0,1 1,1 2,2 0,0 0,1 0,1 0,1 0,1 0,1 0,1 -1,2 -1,2l0 1c-1,0 -1,0 -1,0l-1 1c0,0 0,0 0,0l-2 2c0,0 -1,1 -1,1l-2 2c0,0 0,0 0,0l-1 1c0,0 -1,0 -1,0l-1 1c-1,0 -2,1 -3,2 -1,0 -2,1 -3,1l-7 4c-2,1 -4,2 -3,4 1,0 1,1 2,2 0,0 0,1 0,2 1,1 2,3 3,4l4 4c0,0 1,0 1,1l3 2c0,0 0,0 0,1 1,0 2,1 4,1 0,1 0,1 1,1 1,1 2,1 3,1 1,1 2,1 4,2 1,0 1,0 2,0 1,1 2,1 3,1 1,0 2,0 3,0 1,0 1,1 2,1 0,0 0,0 1,0 0,0 1,0 1,0l8 0c1,0 2,0 3,0 0,0 1,0 1,0 0,0 0,0 1,0 1,0 5,-1 7,-1 2,-1 4,-1 5,-1 1,0 2,-1 3,-1 1,0 1,0 1,0 1,0 1,0 2,0 1,-1 1,-1 2,-1l5 -2c1,0 2,0 3,0l4 -1c1,-1 2,-1 3,-2 1,0 1,0 2,0 0,0 1,0 1,0 1,0 1,-1 1,-1 1,0 1,0 1,0 1,0 2,-1 3,-1l2 -1c0,0 3,-2 2,-1 0,0 0,1 0,1 -1,0 -2,1 -3,2 0,0 -1,0 -2,1 -1,0 -1,0 -3,1 0,0 -1,0 -1,0l-3 1c0,0 0,1 -1,1 0,0 0,0 0,0 -2,1 -3,1 -5,1 0,0 -1,0 -1,1 -1,0 -2,0 -3,1 -4,1 -7,2 -11,2 0,0 -1,0 -2,1 -1,0 -2,0 -3,0 -2,1 -3,1 -4,1 0,0 0,0 -1,0 -1,0 -2,0 -3,0 -1,0 -2,0 -3,0 0,0 -1,0 -2,0 -1,0 -3,0 -5,0l-2 0c0,0 -1,0 -2,0 -1,0 -1,0 -2,0l-6 -1c0,0 0,0 -1,1 0,0 -1,-1 -1,-1 0,0 0,0 -1,0 -1,0 -2,0 -3,0 -1,0 -4,-2 -5,-2 0,0 -1,0 -1,-1 -1,0 -5,-2 -6,-3l-1 0c-1,-1 -1,-1 -2,-1 -1,-1 -2,-2 -3,-3l-1 -1c-1,-1 -1,-1 -2,-2 -1,0 -1,-1 -2,-2 -1,0 -1,-1 -2,-2 0,0 0,0 0,0 0,0 0,0 -1,0 0,-1 0,-1 -1,-2 0,0 -1,-1 -1,-1 -1,-1 -1,-1 -1,-2 -1,0 -1,0 -1,1 -1,0 -2,0 -3,1 -1,0 -1,0 -2,1 -2,0 -3,1 -5,1 0,0 0,0 0,0 0,0 0,0 -1,0 -1,0 0,1 0,2 0,0 0,1 0,2 0,0 0,1 0,1 0,1 0,1 0,2 0,1 1,1 1,2 -3,0 -3,-4 -3,-5 -1,-2 -1,-2 -1,-4 0,0 0,-1 0,-1l1 -4c0,0 0,-1 0,-1 0,-1 0,-2 0,-3 1,-1 1,-3 2,-4 1,-1 1,-2 2,-3l2 -3c0,0 0,-1 0,-1 0,0 1,0 1,-1 0,0 0,0 0,-1 1,0 1,-1 2,-1 0,-1 2,-3 2,-3 0,-1 1,-1 1,-1 0,-1 2,-2 2,-2 0,0 1,-1 2,0 1,0 -1,1 1,2 0,1 2,1 3,0 0,0 0,0 1,0 0,0 1,-1 2,-1 1,0 1,-1 2,-1 1,0 2,-1 2,-1 0,-1 0,-1 2,-2 0,0 0,0 0,0l5 -3c2,-1 4,-2 5,-3 0,0 0,0 1,0l0 -1c0,0 0,0 1,0 1,-1 2,-1 3,-2l1 -1c0,0 0,0 0,0 0,0 1,-1 1,-1l2 -1c0,-1 1,-1 1,-1 1,-1 2,-2 3,-3 1,0 1,0 1,0l4 -4c1,-1 2,-2 3,-4 0,0 0,0 0,0 1,-1 1,-2 2,-3 0,0 0,-1 1,-2 1,-1 1,-3 0,-5l0 -1c-1,-2 -2,-3 -3,-3 0,-1 -1,-2 -2,-2 -1,-1 -2,-2 -3,-2l-2 -1c0,0 -1,-1 -1,-1l-3 -1 -4 -1c-2,0 -3,0 -5,0 -1,0 -2,0 -4,0 0,0 0,0 0,0l-2 0c-4,0 -4,0 -7,0 -1,1 -1,1 -2,1 -1,0 -2,0 -3,0 -1,1 -2,0 -3,0 -1,0 -2,1 -3,1l-6 1c0,0 -1,0 -1,0l-5 2c-2,0 -3,1 -4,1 -1,1 -1,1 -1,1 0,0 0,0 -1,0 0,0 0,0 0,1 0,0 -1,0 -2,0 -1,0 -1,0 -2,1l-2 0c0,0 0,0 0,0 -1,1 -2,1 -2,1 -1,1 -2,1 -3,2 0,0 -1,0 -2,0 0,1 0,2 -1,2 0,1 -1,0 -2,1 0,0 0,0 0,1 -1,0 -1,1 -2,1 0,0 0,0 0,0 -1,0 -1,1 -2,1l-4 3c0,1 1,2 1,2 0,1 0,1 -1,2l0 0c1,0 1,0 1,0 1,0 1,0 2,-1 0,0 0,0 1,0 0,0 0,0 1,0 0,0 0,0 -1,1 -1,1 -1,1 -2,1 0,0 0,1 0,1 0,0 0,0 0,0 1,0 1,0 1,0 0,1 0,1 -1,2 0,0 0,1 0,2 0,0 0,1 0,1 0,1 0,1 1,2 -1,0 -2,0 -2,1 0,1 1,0 0,2 1,0 1,0 2,0 0,0 0,1 0,1 0,0 0,0 0,0 0,0 0,1 0,1 1,0 1,1 2,1 0,1 0,2 1,2 0,0 0,0 0,0 1,1 2,2 2,2 0,0 0,0 0,1 1,0 3,1 4,1 0,0 1,1 1,1 2,0 2,0 3,0 1,0 2,1 2,1 3,0 3,1 6,1 3,0 5,-2 6,-1l2 1c0,0 2,1 2,1 0,1 -1,1 -1,2 0,0 1,0 1,0 0,1 -1,2 -1,2l-5 8c0,0 0,1 -1,1 0,1 0,1 -1,1 0,1 0,1 0,1l-1 0c0,1 0,1 -1,1 0,0 0,0 0,0l1 0c0,0 0,0 0,0 0,0 0,0 0,0 -1,1 -2,3 -3,3 -2,1 -2,1 -2,2 0,0 0,0 0,1l-2 2c0,0 -1,0 -1,0 0,1 0,2 0,2 0,1 -1,1 -1,2 0,0 0,0 0,0l-1 2c0,1 0,1 -1,2 0,0 0,1 0,1 0,1 0,1 0,2 -1,0 -1,0 -1,1 0,1 1,4 1,6 1,1 1,2 1,2 1,1 1,1 1,1 0,0 0,0 0,0l1 1c1,2 0,2 3,4 1,0 1,0 2,1 0,0 1,0 1,0 1,1 1,1 1,1 0,0 0,0 0,0 -2,0 -1,0 -2,0l-1 0c0,0 0,0 -1,-1l-2 -1c0,0 0,0 0,0 -1,-1 -2,-1 -2,-2 -1,0 -2,-1 -2,-2l-1 0c-1,-1 -1,-2 -2,-3 0,0 0,0 0,0 0,-1 -1,-1 -1,-2 -1,-1 -1,-3 -2,-5 0,-2 0,-2 0,-4 0,0 0,0 0,0 -1,0 -2,0 -3,0 -2,1 -4,2 -6,2 -1,0 -2,-1 -3,-1 -1,0 -3,-1 -4,-1 -1,-1 -2,-2 -2,-2 -1,-1 -1,-1 -1,0 0,-2 0,-3 0,-4 0,-1 1,-2 1,-2 0,-1 -1,-2 0,-2 1,0 1,0 1,1 0,0 1,-1 1,-1 1,0 1,-1 2,-2 1,-1 2,-1 2,-2 1,-1 0,-2 1,-2 0,-1 1,-2 1,-1 1,0 1,0 2,0 1,-1 1,-1 2,-2 1,-1 2,-1 3,-1 1,-1 4,-3 5,-4 1,0 1,0 1,0 3,-1 4,-1 7,-1 1,-1 1,-1 1,-1 0,0 0,0 0,0 1,-1 0,-1 1,-2 1,0 1,0 1,-1 0,0 1,0 0,-1 0,0 0,0 -1,0l-2 -1c0,0 -1,0 -1,0 -1,-1 -3,-1 -4,-1 0,0 0,-1 0,-1 -1,0 -1,0 -3,-1 0,0 0,0 0,0l-2 -1 -2 -2c-2,-1 -3,-2 -5,-3 -1,-1 -2,-2 -3,-2 -1,-1 -1,-2 -2,-2 0,-1 -1,-1 -1,-2 -1,-1 -1,-1 -1,-1 0,-2 -1,-3 -1,-5 0,0 0,-1 0,-2l1 -2c1,-1 1,-3 2,-4 1,-1 1,-1 2,-2 1,-1 1,-2 2,-3l2 -1c1,-1 2,-2 3,-2l5 -3c1,0 1,-1 2,-1 1,-1 1,-1 2,-1 1,0 1,-1 2,-1 2,-1 4,-1 6,-2 1,0 2,-1 2,-1 1,0 1,0 2,0 0,-1 1,-1 2,-1 1,0 2,-1 4,-1 1,0 1,0 2,-1 3,0 5,-1 8,-1 2,-1 2,-1 3,-1 2,0 4,0 5,-1 1,0 3,0 4,0 0,0 0,0 1,0l2 0c0,0 0,0 1,0 1,0 3,0 4,-1zm-50 67c0,2 0,2 0,2 -1,1 -1,1 -1,1l-2 5c-1,1 -1,1 -1,1 0,0 0,0 -1,0 0,0 0,0 0,0 -1,0 0,-1 -1,-1 -1,0 -2,-1 -3,-2 -1,-2 1,-2 1,-3l2 -1c0,-1 2,-2 3,-2 0,-1 0,-1 1,-1l2 0c0,0 0,0 0,0 1,1 1,0 1,1 0,0 -1,0 -1,0zm10 -4c0,0 0,0 0,-1 0,0 0,0 0,0 0,0 0,0 0,0 1,-1 1,0 2,-2 0,0 0,-1 1,-1 0,-1 1,-1 2,-1 0,1 0,1 0,1 0,1 -1,2 -2,2l-1 1c0,0 0,0 0,0 0,0 -1,0 -1,0 0,1 -1,1 -1,1zm25 7c-1,0 -3,-1 -4,-2 -1,-1 -2,-2 -4,-2 -2,0 -2,1 -3,2l-3 2c-1,0 -1,1 -2,1 0,0 0,0 0,-1 0,0 0,0 0,0 0,-1 0,-1 0,-1 1,-1 1,-1 2,-2 0,-1 -1,0 0,-1 0,-1 1,-1 1,-1 0,-1 0,-1 0,-1 1,-1 2,-1 2,-2 1,-1 1,-1 1,-1 0,0 1,0 2,-2 1,0 1,-1 2,-1 1,-1 1,-1 2,0 1,0 1,1 3,1 2,0 4,-2 6,-2l4 -2c1,0 2,-1 3,-1 0,0 0,0 1,0 0,-1 1,-1 1,-1 1,0 5,-1 6,-1 1,0 2,0 3,1 0,0 0,0 0,0 0,1 0,1 0,1 0,1 0,1 0,1 -1,1 -1,1 -2,2 0,0 0,0 0,0 -1,1 -1,1 -2,2 0,0 0,0 -1,0 0,0 0,0 0,0 0,1 0,1 -1,1 0,0 -1,1 -2,1 -1,1 -1,2 -2,2 0,0 -1,0 -1,1 0,0 0,0 0,0 0,0 -1,0 -1,0l-8 5c0,0 -2,1 -3,1z"/>
   <g>
    <path class="fil1" d="M844 147l-23 -1 23 1zm0 0c0,-1 0,-1 -1,-1 0,-1 1,-2 1,-2l1 -1c0,0 0,0 0,0 0,0 0,0 0,1 1,1 1,2 0,3 -1,0 -1,0 -1,0zm-6 -2l-4 -1 4 1zm0 0c0,0 0,-1 0,-1 1,-1 3,-2 3,-2 0,1 -2,3 -3,3zm-26 0c0,0 1,-1 2,-2 0,-1 0,-1 1,-1 0,0 0,1 0,1 -1,1 -1,1 -2,2 0,0 0,0 -1,0zm6 2c-1,0 -1,-1 0,-2 0,-1 2,-2 3,-2 0,0 1,-1 1,-1 0,1 -1,1 -1,2 -1,1 -1,2 -2,2 0,1 -1,1 -1,1zm3 -1c0,0 -1,1 -1,3 0,0 0,1 1,0 1,0 1,0 1,0 1,-1 1,-1 1,-1l1 -1c0,0 0,-1 1,-1 0,0 0,0 0,0 0,1 -1,2 0,3 0,1 0,1 1,1 0,-1 2,-2 2,-2l1 -1c0,0 0,2 1,2 0,0 1,-2 1,-2 1,-1 2,-3 3,-3l-1 2c0,1 -1,2 -1,3 1,0 1,0 2,0 0,0 0,0 0,0l1 -1c0,0 1,-1 1,-2 0,2 0,3 2,3 1,1 1,0 2,0 0,-1 0,-1 1,-1 0,0 0,-1 1,-1l0 -1c0,2 1,3 2,3 1,0 2,-1 3,-1 0,-1 0,-1 1,-1 0,-1 0,-1 0,-1 0,0 0,0 -1,0 0,1 -1,1 -2,1 -1,0 0,0 1,-1 1,-1 1,-2 1,-4 0,0 0,-1 0,-2 0,0 0,0 -1,0 0,0 0,0 -1,1 0,0 0,0 0,1 -1,1 -3,4 -4,4 0,1 0,1 -1,1 0,0 -1,1 -2,1 0,-1 0,-1 0,-2 0,0 0,0 1,-1 0,0 0,0 1,0 1,-1 2,-2 2,-4 -1,-1 -2,0 -3,1 0,0 -1,0 -1,0l-1 1c-1,1 -1,2 -1,3 0,0 0,0 0,0l-1 0c0,0 0,1 0,1 0,0 -1,0 -1,0 0,0 0,0 0,0 0,0 0,0 0,0 0,0 0,0 0,0 0,0 0,0 0,0 0,-1 1,-2 1,-3 1,-1 1,-1 0,-2 0,-1 -1,0 -1,0 -1,1 -2,2 -2,2 0,1 -1,2 -2,2l0 -1c0,0 1,0 1,0l1 -3c1,0 1,0 1,-1l3 -4c0,-1 1,-2 1,-3 0,0 -1,0 -1,0 -1,1 -5,7 -6,9 0,1 -1,2 -1,2 0,1 0,1 0,1 0,0 -1,1 -2,1 0,1 -1,0 -1,0 0,-1 0,-2 1,-3 0,0 0,-1 1,-2 0,0 1,0 1,0 0,0 1,-2 1,-2 0,0 0,0 -1,0 1,-1 1,-1 1,-1l0 -1c0,0 0,0 0,0 0,-1 -1,0 -1,0 0,1 -1,1 -1,2 -1,0 -2,0 -2,0 -1,1 -1,2 -1,2 0,0 0,0 0,0 1,0 1,0 2,0 0,0 -1,0 -1,0 0,1 0,1 0,1 0,1 -1,2 -1,2 -1,1 -1,1 -1,1 -1,0 -1,1 -1,1 0,0 -1,0 -1,0 0,-1 0,-2 0,-2 0,-1 1,-1 1,-1 0,-1 0,-1 0,-2 0,0 0,0 0,0 0,-1 0,-1 0,-2 -1,0 -2,1 -2,1 -1,0 -2,1 -2,1 0,0 0,0 -1,0 0,1 -1,2 -2,3 0,1 0,1 0,1 -1,1 -1,1 -2,1 0,1 -1,1 -2,0 0,0 0,-1 0,-1 0,0 1,-1 2,-1 0,0 0,0 1,-1 0,0 0,0 1,-1 1,-2 0,-3 -3,-1 0,0 0,0 0,0 0,0 0,0 0,0 -1,0 -1,1 -2,2 0,0 0,0 0,1 0,0 0,0 0,0 0,1 0,1 -1,1 0,0 -1,1 -1,1 0,0 -1,0 -1,0 0,-1 0,-2 1,-2 0,0 0,-1 0,-1 0,0 1,-1 1,-1 0,0 0,-1 0,-2 0,0 -1,0 -1,0 -1,0 -2,1 -2,1 0,-1 0,-1 0,-1 0,-1 -1,1 -1,1 -1,1 -1,2 0,2 0,1 -1,1 -1,2 0,0 0,0 0,0 0,0 0,0 0,0 1,-1 2,-2 2,-2 0,0 0,0 0,0 1,0 1,-1 1,-1 0,2 -2,4 -1,5 0,2 1,1 2,0 0,0 1,-1 2,-2 0,1 0,2 0,3 1,0 1,1 2,0 1,0 1,0 2,-1l0 0c0,-1 1,-1 1,-2 0,1 1,3 1,3 1,0 1,0 2,-1l1 -1c0,-1 1,-1 1,-1z"/>
   </g>
   <path class="fil1" d="M728 146c0,0 0,0 0,0 0,0 0,0 0,0zm-3 1c0,0 0,0 0,-1 0,-1 3,-3 4,-4 0,1 -1,3 -2,3 0,1 -1,2 -2,2zm8 -3c0,-2 1,-2 1,-4 1,0 3,-4 4,-4 0,0 -1,1 -1,2 0,0 0,1 -1,1l-1 2c0,0 0,1 -1,1 0,0 -1,2 -1,2zm-3 3c-1,0 -1,0 -1,-1 0,-1 1,-2 1,-3 0,0 0,-1 0,-1 0,0 0,0 0,-1 0,0 0,-1 0,-1 -2,0 -3,1 -4,2 0,1 -1,1 -2,2 0,1 -1,1 -1,2 0,1 1,3 2,3 0,0 0,0 0,0l2 -2c0,0 1,-1 1,-1 0,0 0,0 0,0 0,1 -1,3 0,3 1,0 2,0 2,-1 0,0 0,0 1,-1 0,0 0,0 0,0 0,0 1,2 2,2 1,0 1,0 1,-1 1,0 1,-1 2,-1 0,0 0,0 1,0 0,0 0,0 0,0 1,-1 1,-1 2,-2 0,0 0,0 0,0 0,-1 0,-1 0,-1 0,0 0,0 0,0 0,0 2,-1 2,-1l0 1c-1,1 -1,1 -1,2 0,0 0,1 0,2 0,0 0,1 1,1 0,0 1,-1 2,-2 0,0 0,0 0,-1 0,1 1,3 2,3l0 0c1,0 2,-1 2,-2 0,0 1,0 1,0 0,1 1,3 2,3 1,0 2,-1 2,-2l2 -2c0,0 0,0 0,0 -1,0 -2,2 -4,2 0,0 -1,0 -1,-1 0,-1 0,-1 1,-2 0,0 0,-1 1,-1 0,0 0,0 0,0 0,0 0,0 0,0 0,0 0,0 0,0 1,0 3,-2 2,-3 -1,-1 -2,1 -3,1l-1 2c-1,0 -1,1 -1,1 0,1 0,1 -1,1 0,1 -1,1 -1,1 -1,0 -2,-1 -1,-2 1,-1 1,-1 2,-2 0,-1 0,-2 -1,-2 0,0 -1,1 -1,1 -1,1 -1,2 -1,3 -1,1 0,0 -1,1 0,0 -1,1 -1,1 0,0 -1,0 -1,-1 0,-1 1,-2 1,-3 1,0 1,0 1,-1 0,0 0,-1 -1,-1 -1,0 -1,1 -2,1 0,-1 0,-1 0,-1 -1,0 -3,3 -2,3 0,1 0,2 -1,2 0,0 -1,0 -1,0 0,-1 1,-1 1,-2 0,-1 0,-3 -1,-1 -1,0 -2,1 -2,2 0,1 1,1 0,2 0,0 0,1 -1,1 -1,0 0,-2 0,-3 0,0 0,-1 1,-1 1,-1 2,-3 3,-5 1,-1 2,-3 2,-4 0,-2 -3,1 -3,2l-2 2c0,0 0,0 0,0 -1,2 -2,4 -3,6 0,1 1,0 0,1 0,0 -1,1 -1,1z"/>
   <path class="fil1" d="M884 133c0,-1 1,-1 1,-1 0,0 0,0 0,0 0,0 0,1 -1,1zm-12 -1c0,0 -1,0 -1,0 0,-1 1,-2 1,-2 1,-1 2,-1 3,-1 0,1 0,1 -1,2 0,1 0,1 -1,1 0,0 -1,0 -1,0zm3 -3c0,0 -1,-1 -1,-1l-1 0c-1,0 -3,2 -3,4 -1,0 -1,0 -1,0 0,0 0,0 0,0 -1,1 -2,1 -3,2 0,0 0,0 0,0 -1,-1 -1,-2 -1,-2 1,0 2,0 2,-1 1,0 1,0 2,0 0,-1 1,-1 1,-2 0,-1 0,-1 0,-1 0,0 1,0 1,0l5 -1c0,0 0,0 0,0 0,1 -1,2 -1,2zm11 -1c-1,0 -2,0 -3,0 0,1 -1,1 -2,2 0,1 0,0 0,1 -1,1 -1,1 -2,2 0,0 0,0 -1,0 0,0 0,0 1,-1l1 -1c0,0 0,-1 0,-1l2 -3c0,0 0,0 1,0l1 0c0,0 0,0 0,0l3 0c0,0 -1,1 -1,1zm6 -2c-1,0 -2,0 -3,0 0,0 0,-1 0,-1 0,0 0,-1 0,-1 0,0 1,0 1,-1 1,0 2,0 2,1 0,1 0,1 0,2zm-5 0l0 0c0,0 -1,0 -1,0 -1,0 -1,0 -1,0 -1,0 -1,0 -1,0l-16 1c0,0 -1,0 -2,0l-2 1c-1,0 -1,-1 -2,0 1,0 1,0 1,0 1,0 1,0 1,0 0,0 0,0 0,0 1,0 2,0 2,0 0,0 0,0 0,1 1,-1 1,-1 2,-1 0,0 1,0 1,0 0,1 -1,2 -2,2 0,0 0,1 -1,1 -1,1 -1,0 -2,0 -1,0 -2,0 -2,1 0,0 1,0 1,0 1,0 1,1 1,1 1,2 1,2 2,1 1,0 2,-1 3,-1l1 -1c0,0 0,0 0,0 0,2 1,2 2,1 1,0 1,0 1,0 0,0 0,0 0,1 0,0 0,0 1,0 0,0 1,-1 2,-1 0,0 0,0 0,0 1,-1 2,-2 2,-2 0,-1 -1,-1 -1,0 0,0 0,0 0,0l-1 1c0,0 -1,2 -2,2 0,-1 1,-2 1,-2l3 -4c0,0 0,0 0,-1l2 0c0,0 -1,3 -1,3l-2 2c-1,1 0,3 2,2l1 -1c0,0 0,0 0,-1 1,0 1,-1 1,-1 0,2 1,3 2,3 1,0 1,0 1,0 1,1 1,1 2,1 0,-1 0,-1 0,-1 0,0 0,0 0,0 -1,0 -1,0 -2,0 1,0 3,-2 3,-3 -1,-1 -2,-1 -2,0 -1,0 -1,0 -2,1 0,0 0,0 0,1 0,0 0,-1 0,-1 0,-1 0,-2 0,-2 1,-1 1,-1 3,-2 0,0 0,0 0,0l1 0c1,0 1,0 1,0 0,-1 0,-1 0,-1 1,0 1,0 2,0 0,0 0,0 0,0 1,0 1,0 1,0 0,0 0,0 0,0l-3 5c-1,1 0,3 3,0 0,0 2,-2 2,-2 0,-1 -1,0 -1,0 0,0 -1,1 -1,1 0,0 -1,2 -2,2 0,-1 0,-1 0,-1 0,0 1,-1 1,-1l1 -1c0,-1 0,-1 0,-1 0,0 2,-2 2,-3l3 0c1,0 1,0 1,0 0,-1 -1,0 -2,0l-1 0c0,0 0,0 -1,0 0,0 0,-1 0,-1 1,-1 0,-3 -2,-3 -1,0 -3,1 -3,2 -1,1 -1,1 -1,2z"/>
   <path class="fil1" d="M780 146c0,0 0,0 0,0l0 0zm-3 1c0,0 0,-1 1,-3 1,0 2,-1 4,-2 -1,1 -1,1 -1,2 -1,0 -1,1 -1,1 -1,1 -1,1 -1,1 0,1 -1,1 -2,1zm-8 0c0,0 0,2 0,2 1,0 1,0 1,0l1 -2c0,0 0,-1 0,-1 1,-1 2,-2 3,-2 0,0 -1,0 -1,0 0,1 -1,3 -1,4 0,1 0,1 1,1 1,0 2,-1 2,-2 0,0 1,0 1,-1 0,1 0,3 1,3 0,0 1,0 1,0 1,-1 1,-2 2,-2 0,-1 0,-1 0,-1 0,0 0,0 0,0 0,0 -1,3 0,3 1,0 3,-1 3,-2 0,0 0,0 1,0 0,-1 0,-1 1,-1 0,0 -1,0 -1,0 0,1 0,2 0,3 0,0 0,0 0,0 2,1 3,-1 4,-2 1,-1 1,-1 1,-1 -1,0 -2,1 -3,1 0,0 0,0 0,-1 0,-1 0,-2 1,-3 0,0 0,-1 0,-1 1,0 1,0 2,0 0,0 1,-2 1,-2 0,0 -1,0 -1,0 0,-1 1,-1 1,-2 0,0 0,0 -1,0 -1,0 -1,1 -1,2 -1,0 -1,0 -2,0 -1,0 -1,0 -1,1 0,0 -1,1 -1,1 1,0 0,0 2,0 0,0 -1,1 -1,2 0,0 -1,1 -1,1 0,1 0,1 -1,1 0,0 0,0 0,0 0,1 -1,1 -1,1 -1,0 -1,0 -1,-1 0,-1 2,-2 2,-3 0,0 -1,-1 -1,-1 0,0 1,0 1,-1 0,0 -1,-1 -1,-1 -1,0 -2,1 -3,1 0,1 -1,1 -2,2 -2,2 -1,2 -1,3 -1,0 -3,2 -3,0 0,0 1,-1 1,-2 1,0 1,0 1,0 0,-1 1,-1 0,-2 0,-1 -1,0 -2,0 0,1 -2,3 -2,3 0,0 0,0 0,1 -1,0 -1,0 -1,0 0,-2 0,-1 1,-3l1 -1c1,-1 4,-7 4,-7 0,-1 0,-1 0,-1 -1,0 -1,1 -2,1 0,0 0,0 0,1l-1 1c0,1 0,1 -1,1 0,2 -1,3 -2,5 -1,1 -1,2 -1,4z"/>
   <path class="fil1" d="M799 147c-1,0 -1,0 -2,0 -1,-1 1,-3 1,-4 1,0 1,0 2,0 1,0 3,1 3,2l0 0c0,1 -3,2 -4,2zm-5 -8c0,0 0,0 1,0 0,0 3,0 3,-1 0,0 0,0 0,0 0,0 0,-1 1,-1 0,0 1,0 1,0 1,0 5,-1 5,1 0,2 -3,2 -4,2 0,0 -1,0 -1,0 0,0 2,-2 2,-2 0,-1 -1,0 -2,0 0,1 -1,1 -1,2 -1,1 -1,1 -1,1 -1,0 -3,0 -3,1 0,0 1,0 1,0 0,1 0,1 1,1 0,0 0,0 0,0 -1,1 -2,3 -2,4 0,1 0,2 1,2 2,1 4,0 6,-1 1,0 1,0 1,-1 0,0 0,0 1,0 0,-1 0,-1 0,-1 0,-1 0,-1 0,-2 0,-1 -2,-1 -3,-2 -1,0 -2,0 -2,0 0,0 0,0 0,-1 2,0 4,0 5,-1 0,0 1,0 1,0l1 -1c2,-2 1,-5 -2,-5 -2,0 -3,0 -4,0 -1,1 -3,1 -4,2 0,0 -2,2 -2,3z"/>
   <path class="fil1" d="M713 141c0,0 1,0 1,-1 1,0 1,0 2,0 0,0 0,0 0,0 0,-1 0,-1 0,-1 -1,0 -1,0 -2,0 2,-1 5,-1 7,-1 0,-1 2,-1 2,0 0,1 -1,2 -1,3l-1 2c0,0 0,0 -1,0 -2,0 -1,0 -3,1 -1,0 -1,0 -1,1 -1,0 -1,0 -1,0 0,1 0,1 1,1 1,0 2,0 3,0 0,0 -1,0 -1,1l-1 2c-1,0 -2,0 -3,2 0,0 -1,1 -1,1 0,0 1,1 1,1 1,0 3,-3 3,-3l1 -1c0,0 0,0 0,0l2 -3c0,0 0,0 1,0 0,0 1,0 1,0 0,-1 1,-2 1,-3l-1 0 1 -1c0,0 0,-1 0,-1 0,-1 2,-4 2,-5l0 0c0,-1 -2,-1 -3,-1 -1,0 -3,0 -5,0 -1,1 -2,1 -3,2 0,0 0,0 0,0 -1,1 -1,2 -1,2 0,1 0,1 0,1 0,0 0,1 0,1z"/>
   <path class="fil1" d="M759 139c0,1 0,1 1,1 1,0 1,0 2,0 0,-1 -1,-1 -2,-1 0,0 0,0 0,0 2,-1 5,-2 7,-2l1 0c0,0 1,0 1,0 0,0 0,1 0,1l-2 2c-1,2 -2,3 -2,5l-1 2c0,0 -1,2 -1,2 0,1 1,2 2,0 0,0 1,-2 1,-2 0,0 0,0 0,0 0,0 0,-1 0,-1l2 -5c1,-1 1,-1 1,-2 0,0 1,-1 1,-2 0,0 0,-2 0,-2 -1,-1 -4,-1 -5,-1 -2,0 -5,1 -6,3 0,0 0,1 0,2z"/>
   <path class="fil1" d="M897 123c1,2 1,3 1,5 0,0 0,1 -1,1l-1 2c-1,1 -2,2 -3,2l-1 2c0,0 0,0 0,0 0,0 2,-1 2,-2 1,0 1,0 1,-1l2 -1c1,-2 2,-4 2,-5 0,-1 0,-2 0,-2 0,-1 0,-1 0,-1 -1,0 -1,0 -1,0 0,0 0,0 -1,0z"/>
   <path class="fil1" d="M856 135c0,1 0,2 0,2 1,0 1,0 1,0 0,0 0,0 1,0 0,-1 -1,-1 -1,-2 0,-1 0,-1 0,-2 1,-3 4,-6 6,-7 1,-1 0,0 0,-1 0,0 0,0 0,0 -1,1 -1,1 -3,2 0,0 0,0 0,0l-1 2c-1,1 -2,2 -2,3l-1 0c0,1 0,2 0,3z"/>
   <path class="fil1" d="M747 140c0,0 0,1 1,0 1,-1 1,-2 0,-2 0,0 -1,0 -1,1 0,0 0,0 0,1z"/>
   <path class="fil2" d="M647 85l0 11 3 0c2,0 4,0 4,-1 1,-1 2,-2 2,-4 0,-2 -1,-3 -2,-4 -1,-1 -2,-2 -4,-2l-3 0zm0 -11l0 10 3 0c2,0 3,0 4,-1 1,-1 1,-2 1,-4 0,-2 0,-3 -1,-4 -1,-1 -2,-1 -4,-1l-3 0zm-7 -1c1,0 2,0 2,0 1,0 2,0 3,0 1,0 2,0 4,0 1,0 2,0 2,0 3,0 5,0 6,1 2,1 2,3 2,5 0,2 0,3 -1,4 -1,1 -3,2 -5,2l0 0c3,0 4,1 6,2 1,1 1,2 1,4 0,2 0,4 -2,5 -1,1 -4,1 -7,1 -1,0 -2,0 -3,0 -2,0 -3,0 -3,0 -1,0 -2,0 -2,0 -1,0 -2,0 -3,0l0 -1c2,0 2,0 3,0 0,-1 0,-1 0,-3l0 -16c0,-2 0,-2 0,-3 -1,0 -2,0 -3,0l0 -1zm22 8c1,0 1,0 2,0 1,0 1,0 2,0 1,0 1,0 2,0 1,0 1,0 2,0l0 1c0,0 -1,0 -1,0 -1,0 -1,1 -1,1 0,0 0,0 0,1 0,0 1,0 1,0l3 9c2,-4 2,-6 3,-8 0,-1 0,-2 0,-2 0,0 0,-1 0,-1 0,0 -1,0 -2,0l0 -1c1,0 1,0 2,0 0,0 1,0 1,0 1,0 1,0 1,0 1,0 1,0 2,0l0 1c-1,0 -1,0 -1,0 -1,1 -1,1 -1,2l-6 15c-1,2 -2,4 -3,5 0,1 -1,1 -3,1 0,0 -1,0 -1,0 -1,-1 -1,-1 -1,-2 0,0 0,0 1,-1 0,0 0,0 1,0 1,0 1,0 1,0 1,1 1,1 1,1 1,0 1,0 2,-1 0,-1 1,-3 1,-5l-6 -13c0,0 0,0 0,0 0,-1 -1,-2 -2,-2l0 -1z"/>
   <path class="fil2" d="M97 68c2,0 3,0 5,0 1,0 2,0 3,0 2,0 4,0 8,0 0,0 1,0 1,0l0 2c-2,0 -3,0 -3,1 -1,0 -1,0 -1,1 0,0 0,1 0,1 0,1 0,1 1,2l8 26 8 -24 -1 -3c-1,-2 -1,-3 -2,-3 0,-1 -1,-1 -3,-1l0 -2c1,0 2,0 3,0 3,0 4,0 5,0 2,0 4,0 8,0 0,0 1,0 1,0l0 2c-2,0 -3,0 -3,1 -1,0 -1,0 -1,1 0,1 0,1 0,1 0,1 0,1 1,2l8 26 9 -26c0,0 0,-1 0,-1 0,-1 0,-1 0,-2 0,0 0,-1 -1,-1 0,-1 -2,-1 -3,-1l0 -2c1,0 3,0 3,0 1,0 2,0 3,0 0,0 1,0 2,0 1,0 2,0 4,0l0 2c-2,0 -3,0 -3,1 -1,0 -1,1 -2,2l-9 26c0,1 -1,2 -2,5 0,2 -1,4 -2,7l-3 -1 -10 -29 -8 20c0,1 -1,3 -1,5 -1,1 -2,3 -2,5l-3 -1 -13 -36c-1,-2 -1,-3 -2,-3 0,-1 -2,-1 -3,-1l0 -2zm86 2c-4,0 -7,1 -9,5 -3,3 -4,8 -4,14 0,6 1,11 4,14 2,4 5,5 9,5 4,0 7,-1 10,-5 2,-3 3,-8 3,-14 0,-6 -1,-11 -4,-14 -2,-4 -5,-5 -9,-5zm0 -3c7,0 12,2 16,6 3,4 5,9 5,16 0,6 -2,12 -6,16 -4,4 -9,6 -15,6 -6,0 -11,-2 -15,-6 -4,-4 -6,-9 -6,-16 0,-6 2,-12 6,-16 4,-4 9,-6 15,-6zm48 3c-4,0 -7,1 -10,5 -2,3 -3,8 -3,14 0,6 1,11 3,14 3,4 6,5 10,5 4,0 7,-1 9,-5 3,-3 4,-8 4,-14 0,-6 -1,-11 -4,-14 -2,-4 -5,-5 -9,-5zm0 -3c6,0 11,2 15,6 4,4 6,9 6,16 0,6 -2,12 -6,16 -4,4 -9,6 -15,6 -7,0 -12,-2 -16,-6 -4,-4 -6,-9 -6,-16 0,-6 2,-12 7,-16 4,-4 9,-6 15,-6zm27 1c2,0 3,0 5,0 1,0 2,0 3,0 2,0 5,0 9,0 0,0 1,0 1,0l0 2 0 0c-3,0 -4,0 -5,1 0,0 -1,2 -1,4l0 33 10 0c4,0 6,-1 8,-3 1,-1 2,-4 3,-9l2 0 -1 14c-4,0 -7,0 -11,0 -3,0 -5,0 -7,0 -3,0 -8,0 -16,0l0 0 0 -2c2,0 3,0 4,-1 0,0 1,-2 1,-4l0 -28c0,-2 -1,-4 -1,-4 -1,-1 -2,-1 -4,-1l0 -2zm72 0c0,1 0,2 0,4 0,2 1,4 1,7l-2 0c-1,-4 -1,-6 -3,-7 -1,-1 -4,-2 -8,-2l-9 0 0 17 4 0c3,0 5,-1 5,-2 1,0 1,-2 2,-5l2 0c0,1 0,1 0,2 -1,3 -1,5 -1,6 0,2 0,4 1,8 0,0 0,1 0,1l-2 0c-1,-3 -1,-6 -2,-7 -1,-1 -2,-1 -5,-1l-4 0 0 19 11 0c5,0 7,-1 9,-2 1,-2 2,-4 2,-8l2 0c0,2 0,4 0,6 0,2 0,4 0,6l-37 0 0 -2c3,0 4,0 5,-1 0,0 0,-2 0,-4l0 -28c0,-2 0,-4 0,-4 -1,-1 -2,-1 -5,-1l0 -2 8 0c6,0 10,0 15,0 4,0 8,0 11,0zm8 0c1,0 3,0 4,0 1,0 2,0 3,0 0,0 1,0 2,0 1,0 3,0 4,0l24 31 0 -23c0,-3 -1,-4 -1,-5 -1,-1 -3,-1 -5,-1l0 -2c2,0 3,0 4,0 1,0 2,0 3,0 1,0 2,0 2,0 1,0 3,0 4,0l0 2c-2,0 -3,0 -4,1 0,1 -1,2 -1,5l0 18c0,3 0,6 0,9 0,3 0,5 0,8l-3 -1 -28 -37 0 29c0,3 0,4 1,5 1,1 2,1 5,1l0 2c-2,0 -4,0 -5,0 -1,0 -2,0 -2,0 -1,0 -2,0 -2,0 -1,0 -3,0 -5,0l0 -2c2,0 4,0 4,-1 1,-1 1,-2 1,-5l0 -27c0,-2 0,-4 0,-4 -1,-1 -2,-1 -5,-1l0 0 0 -2zm67 0c1,0 1,0 3,0 3,0 5,0 6,0 1,0 3,0 7,0 1,0 1,0 2,0l0 2c-2,0 -4,0 -4,1 -1,0 -1,2 -1,4l0 15c4,-4 7,-8 10,-12 3,-3 5,-6 5,-7 0,0 0,-1 -1,-1 0,0 -1,0 -3,0l0 -2c2,0 3,0 4,0 1,0 2,0 3,0 1,0 1,0 3,0 1,0 2,0 4,0l0 2c-2,0 -3,0 -3,0 -1,1 -2,1 -3,2 0,0 -2,2 -4,5 -3,3 -5,6 -7,8l14 20c1,1 2,2 3,2 1,1 2,1 3,1l0 0 0 2c-2,0 -4,0 -5,0 -1,0 -3,0 -3,0 -1,0 -2,0 -3,0 -1,0 -3,0 -6,0l0 -2c1,0 2,0 2,0 1,-1 1,-1 1,-1 0,-1 0,-1 0,-1 0,0 0,-1 -1,-1l-10 -15 -3 2 0 11c0,2 0,4 1,4 0,1 1,1 4,1l0 2c-3,0 -5,0 -6,0 -1,0 -2,0 -3,0 -1,0 -3,0 -4,0 -2,0 -3,0 -5,0l0 -2c2,0 4,0 4,-1 1,0 1,-2 1,-4l0 -28c0,-2 0,-4 -1,-4 0,-1 -2,-1 -4,-1l0 -2zm43 0c0,0 1,0 2,0 3,0 5,0 6,0 1,0 4,0 7,0 1,0 2,0 2,0l0 2c-2,0 -3,0 -4,1 0,0 -1,2 -1,4l0 11 19 0 0 -11c0,-2 0,-4 0,-4 -1,-1 -2,-1 -4,-1l0 -2c0,0 1,0 2,0 3,0 5,0 6,0 1,0 4,0 7,0 1,0 2,0 2,0l0 2c-2,0 -3,0 -4,1 -1,0 -1,2 -1,4l0 28c0,2 0,4 1,4 1,1 2,1 4,1l0 2c-1,0 -3,0 -5,0 -1,0 -2,0 -3,0 -1,0 -2,0 -4,0 -1,0 -3,0 -5,0l0 -2c2,0 3,0 4,-1 0,0 0,-2 0,-4l0 -14 -19 0 0 14c0,2 1,4 1,4 1,1 2,1 4,1l0 2c-2,0 -4,0 -5,0 -2,0 -3,0 -3,0 -2,0 -3,0 -5,0 -1,0 -3,0 -4,0l0 -2c2,0 3,0 4,-1 0,0 1,-2 1,-4l0 -28c0,-2 -1,-4 -1,-4 -1,-1 -2,-1 -4,-1l0 -2zm64 9l-6 16 11 0 -5 -16zm1 -10l3 0 14 38c1,1 1,2 2,2 0,1 1,1 3,1l0 2c-3,0 -5,0 -6,0 -1,0 -2,0 -3,0 0,0 -2,0 -3,0 -1,0 -3,0 -6,0l0 -2c2,0 3,0 4,-1 0,0 1,-1 1,-1 0,-1 0,-1 0,-1 0,0 -1,-1 -1,-1l-3 -9 -13 0 -2 7c0,0 0,0 0,0 -1,2 -1,3 -1,4 0,0 0,1 0,1 1,1 2,1 3,1l0 2c-1,0 -2,0 -3,0 -1,0 -2,0 -2,0 -1,0 -2,0 -3,0 -1,0 -2,0 -3,0l0 -2c1,0 2,0 3,-1 1,0 1,-1 2,-2l14 -38zm37 3l0 38 4 0c3,0 5,0 6,-1 1,0 3,0 4,-1 2,-1 4,-3 5,-6 1,-3 2,-7 2,-11 0,-7 -2,-12 -4,-15 -3,-3 -7,-4 -14,-4l-3 0zm-13 -2c1,0 2,0 3,0 1,0 2,0 4,0 2,0 3,0 6,0 2,0 4,0 6,0 7,0 13,2 17,5 4,4 6,9 6,16 0,7 -2,12 -6,16 -4,3 -9,5 -16,5 -2,0 -4,0 -6,0 -3,0 -5,0 -6,0 -1,0 -3,0 -4,0 -1,0 -3,0 -4,0l0 -2c2,0 4,0 4,-1 1,0 1,-2 1,-4l0 -28c0,-2 0,-4 -1,-4 0,-1 -2,-1 -4,-1l0 -2zm47 0c1,0 2,0 3,0 3,0 5,0 6,0 2,0 4,0 8,0 0,0 1,0 2,0l0 2c-3,0 -4,0 -5,1 0,0 -1,2 -1,4l0 28c0,2 1,4 1,4 1,1 2,1 5,1l0 2c-3,0 -5,0 -6,0 -1,0 -2,0 -3,0 -1,0 -2,0 -4,0 -1,0 -3,0 -6,0l0 -2c3,0 4,0 5,-1 0,0 1,-2 1,-4l0 -28c0,-2 -1,-4 -1,-4 -1,-1 -2,-1 -5,-1l0 -2z"/>
  </g>
 </g>
</svg>
